<svg version="1.2" xmlns="http://www.w3.org/2000/svg" viewBox="0 0 24 24" width="24" height="24"><style></style><path fill-rule="evenodd" d="m21 12q0 0 0 0 0 0 0 0m0 0c0 5-4 9-9 9-5 0-9-4-9-9 0-5 4-9 9-9 5 0 9 4 9 9zm-15.9 4.2c1.4 2.4 4.1 3.9 6.9 3.9q1.1 0 2.1-0.3 1-0.2 1.9-0.8 0.9-0.5 1.7-1.2 0.7-0.8 1.3-1.7l-7-2.8zm-0.1-8.2q-0.5 1-0.8 2-0.2 1-0.2 2 0 1.1 0.2 2.1 0.3 1 0.8 1.9l5.8-4.7 1.1-7.3c-2.8 0-5.4 1.6-6.9 4zm14 0c-1.4-2.5-4-4-6.9-4l1.1 7.4 5.9 4.6q0.5-1 0.8-2 0.2-1 0.2-2 0-1.1-0.3-2.1-0.3-1-0.8-1.9z"/></svg>