<svg version="1.2" xmlns="http://www.w3.org/2000/svg" viewBox="0 0 24 24" width="24" height="24"><style></style><path fill-rule="evenodd" d="m12.2 17.6q0 0 0 0 0 0 0 0m-6.8-1.6c-0.8-0.4-1.5-1-2.1-1.7-1.1-1.5-1.1-3.3 0.1-4.7 1-1.2 2.2-1.9 3.6-2.4 1.8-0.6 3.7-0.9 5.5-0.8 2.2 0.1 4.3 0.5 6.2 1.6 1 0.6 1.9 1.3 2.4 2.4 0.6 1.2 0.5 2.5-0.2 3.6-0.7 1.1-1.7 1.8-2.8 2.3-1.5 0.7-3 1.1-4.6 1.2-0.5 0.1-1 0.1-1.3 0.1-2.6 0-4.8-0.4-6.8-1.6zm6.6 1.2c1.6 0 3.1-0.2 4.6-0.7 1.3-0.4 2.5-1.1 3.5-2.1 1.3-1.5 1.3-3.2 0-4.7-0.8-0.9-1.7-1.5-2.8-1.9-1.8-0.8-3.7-1-5.7-1q-2 0-4 0.6c-1.4 0.5-2.8 1.2-3.8 2.3-1.2 1.4-1.2 3.1-0.1 4.5 0.6 0.8 1.4 1.3 2.3 1.7 1.9 1 3.9 1.3 6 1.3zm0-9.9c2 0 3.9 0.3 5.7 1.1 0.8 0.4 1.5 0.9 2.1 1.6 1.1 1.3 1.1 2.9 0 4.1-0.9 1-2.1 1.6-3.4 2-1.8 0.6-3.6 0.8-5.5 0.6-1.6-0.1-3.1-0.4-4.6-1.1-0.7-0.3-1.4-0.7-2-1.3-1.4-1.4-1.4-3.2 0.1-4.6 0.9-1 2.1-1.5 3.4-1.9 1.4-0.4 2.6-0.5 4.2-0.5zm-1.4 5.6q-0.1 0-0.1 0-0.2 0.1-0.4 0.2c-0.7 0.5-1.5 0.7-2.4 0.6-0.3-0.1-0.7 0-1 0 0 0.3 0.3 0.8 0.6 0.9 0.6 0 1.3 0.1 2 0 0.4-0.1 0.7-0.4 1.1-0.6q0 0 0.1 0 0-0.1 0-0.1 0 0 0-0.1 0.1 0 0.1 0 0-0.4 0-0.9zm-5.1-1.2c0.2 0.6 0.5 0.9 1.1 0.9q1.6 0 3.2 0c0.9 0 0.8 0.3 0.8-0.8q0 0-0.1-0.1zm8 1q0.2 0 0.4 0 1.8 0 3.6 0c0.5 0 0.9-0.4 1-1h-2.4q-1.2 0-2.4 0c-0.1 0-0.2 0.1-0.2 0.2 0 0.2 0 0.5 0 0.8zm-8.9-2.5c0.2 0.3 0.3 0.5 0.5 0.7 0.1 0.1 0.3 0.2 0.4 0.2q2.4 0 4.8 0.1 0.1 0 0.3-0.1v-0.9zm8.9 1q0.1 0 0.2 0 2.3 0 4.5 0.1c0.6 0 1-0.4 1.1-0.9q0 0-0.1-0.1h-4.8q-0.1-0.3-0.1-0.6h-0.9v1.5zm0 3.8c-0.6-0.2-0.7-0.3-0.7-1q0.1-2.6 0.1-5.2c0-0.1-0.1-0.3-0.2-0.3q-0.1 0-0.2 0-0.1 0-0.2 0 0 0-0.1 0-0.1 0-0.2 0-0.6 0.2-1.2 0.5c-0.1 0.1-0.1 0.2-0.2 0.4 0 0 0.2 0.1 0.2 0.2 0.4 0.2 0.5 0.3 0.5 0.7v3.7c0 0.6-0.1 0.7-0.6 0.9-0.2 0.1-0.1 0.3-0.1 0.4 0 0.1 0.1 0.2 0.2 0.2q1.2 0 2.5 0c0.1 0 0.2-0.1 0.2-0.2 0.1-0.1 0-0.2 0-0.3zm3.9-1.2q0 0 0 0 0 0 0 0zm-1.2 0.1c-0.6 0-1.1-0.1-1.6-0.5-0.3-0.3-0.7-0.1-1.1-0.1v0.9q0.3 0 0.5 0c0.1 0 0.3 0 0.4 0.1 0.4 0.4 0.9 0.5 1.5 0.5q0.2 0 0.3 0c0.6 0 1-0.3 1.2-0.9-0.4 0-0.8-0.1-1.2 0z"/></svg>