<svg version="1.2" xmlns="http://www.w3.org/2000/svg" viewBox="0 0 24 24" width="24" height="24"><style></style><path fill-rule="evenodd" d="m12 21c-5 0-9-4-9-9 0-5 4-9 9-9 5 0 9 4 9 9 0 5-4 9-9 9zm0-0.6c4.6 0 8.4-3.8 8.4-8.4 0-4.6-3.8-8.3-8.4-8.3-4.6-0.1-8.3 3.7-8.3 8.3 0 4.6 3.7 8.4 8.3 8.4zm-3.5-11.9c0.9-1 2.2-1.5 3.5-1.5 1.3 0 2.6 0.5 3.5 1.5 0.9 0.9 1.5 2.2 1.5 3.5 0 2.7-2.3 5-5 5-2.8 0-5-2.3-5-5 0-1.3 0.5-2.6 1.5-3.5zm-0.1-1.1q0 0.1 0 0.3-0.1 0.1-0.2 0.2-0.4 0.4-0.7 0.8-0.8-0.8-1.5-1.5 0.4-0.4 0.7-0.7 0.2-0.2 0.4-0.2h0.2c0.3 0.1 0.4 0.3 0.3 0.6q0.1 0 0.1 0 0.3-0.1 0.5 0.1 0.2 0.1 0.2 0.3zm-0.4 0.4q0.1-0.1 0.1-0.2 0-0.1 0-0.1-0.1-0.1-0.1-0.2-0.1 0-0.2 0h-0.1c-0.1 0-0.1 0-0.2 0.1q-0.2 0.2-0.4 0.4 0.2 0.3 0.4 0.5 0.2-0.2 0.5-0.5c0 0 0 0 0 0zm8.9 0.7q0.8-0.4 1.5-0.8 0.1 0.2 0.2 0.3-0.9 0.5-1.9 1-0.1-0.2-0.3-0.3 0.5-0.7 1-1.4-0.8 0.4-1.5 0.8l-0.3-0.3v-0.1q0.3-0.3 0.5-0.7 0.3-0.5 0.7-1 0 0 0 0 0.1 0.1 0.3 0.3-0.5 0.6-1 1.3 0.8-0.4 1.5-0.8l0.2 0.3q-0.4 0.7-0.9 1.4zm-3.8-2zm-0.4 0q0-0.8 0-1.6 0 0 0 0-0.3 0.8-0.5 1.5 0 0.1-0.1 0.1h-0.2q-0.1 0-0.1-0.1l-0.5-1.5q0 0-0.1 0 0.1 0.8 0.1 1.6h-0.4v-2.1h0.5q0 0 0 0.1 0.3 0.7 0.6 1.5 0 0 0 0 0 0 0 0 0.3-0.8 0.5-1.6 0 0 0.1 0h0.4l0.1 2.1zm-5.5 0.7q0.2-0.2 0.1-0.4-0.3-0.3-0.5 0-0.2 0.2-0.4 0.4 0 0 0 0 0.2 0.2 0.4 0.4 0 0 0.1-0.1 0.2-0.2 0.3-0.3zm4.8 4.8h4.7c0-2.7-2.2-4.8-4.7-4.8zm-0.1 4.9v-4.6h-4.8c0.1 2.6 2.4 4.6 4.8 4.6z"/></svg>