<svg version="1.2" xmlns="http://www.w3.org/2000/svg" viewBox="0 0 24 24" width="24" height="24"><style></style><path fill-rule="evenodd" d="m21 12c0 4.4-4 8-9 8-5 0-9-3.6-9-8 0-4.4 4-8 9-8 5 0 9 3.6 9 8zm-1.6 0.4c0.1-2.8-0.7-3.5-1.1-3.5-0.4 0-0.9 0.5-1.1 1.2-0.3 0.8-0.4 1.8-0.4 1.8-0.2 1-0.4 1.7-0.9 2.4-0.8 1-1.5 1.1-2.5 1.4-1.1 0.4-1 0.6-1 1.5 0 1.4 0.8 1.7 1.4 1.7 0.8 0 2.2-0.6 3.3-1.7 1.3-1.4 2.1-3.1 2.3-4.8zm-7.1-6.6v1.5c0 0.6 0.4 0.9 0.9 0.9h2.8c0.6 0 0.8-0.4 1-0.7 0.2-0.2 0.5-0.2 0.5-0.3 0-0.1-0.7-0.9-2-1.6-1.3-0.7-2.2-0.7-2.3-0.7-0.2 0-0.8 0.2-0.8 0.9zm-0.8 1.5v-1.4c0-0.8-0.6-1-0.8-1-0.1 0-1 0-2.3 0.7-1.3 0.7-2 1.5-2 1.6 0 0.1 0.3 0.1 0.5 0.4 0.2 0.2 0.4 0.6 1 0.6h2.8c0.5 0 0.9-0.3 0.9-0.9zm-1.1 8.4c-1-0.3-1.6-0.4-2.4-1.4-0.6-0.7-0.8-1.4-1-2.4 0 0-0.1-1-0.3-1.8-0.3-0.8-0.7-1.2-1.2-1.2-0.4 0-1.2 0.7-1 3.5 0.1 1.7 0.9 3.4 2.3 4.8 1.1 1.1 2.4 1.7 3.2 1.7 0.6 0 1.5-0.3 1.5-1.7 0-0.9 0-1.1-1.1-1.5zm1.1-5.5c0-0.8-0.5-1-1-1h-1.9c-0.4 0-0.9 0.3-0.9 1.2 0 0 0 0.7 0.3 1.7 0.3 0.9 0.6 1.7 1.3 2.3 0.6 0.4 1.3 0.4 1.6 0.4 0.3 0 0.6-0.2 0.6-0.6zm4.4 0.2c0-0.9-0.4-1.2-0.8-1.2h-2c-0.4 0-0.9 0.3-0.9 1v4c0 0.4 0.3 0.6 0.6 0.6 0.3 0 1 0.1 1.6-0.4 0.7-0.5 1-1.3 1.3-2.3 0.3-0.9 0.2-1.7 0.2-1.7z"/></svg>