<svg version="1.2" xmlns="http://www.w3.org/2000/svg" viewBox="0 0 24 24" width="24" height="24"><style></style><path fill-rule="evenodd" d="m20.4 14.7c-1.2 1.5-2.9 2.3-4.7 2.7-1.2 0.3-2.5 0.4-3.1 0.5-2.9-0.1-5.1-0.5-7.2-1.7-1.1-0.7-2.1-1.5-2.6-2.8-0.6-1.5-0.2-2.9 0.9-4.2 1.1-1.3 2.6-2 4.2-2.4 3.4-1 6.8-0.8 10 0.7 1.1 0.5 2 1.1 2.7 2.1 1.3 1.6 1.2 3.6-0.2 5.1zm-0.3-4.7q-0.9-1-2.1-1.5c-3.4-1.5-6.8-1.6-10.3-0.6-1.4 0.3-2.6 0.9-3.6 1.9-1.3 1.4-1.3 3.1 0 4.4 0.5 0.5 1.1 0.9 1.6 1.2 2 1 4.1 1.4 6.7 1.4 1.2 0 2.8-0.2 4.3-0.7 1.3-0.5 2.5-1.1 3.4-2.1 1.1-1.2 1.1-2.8 0-4zm-10.2 2.1c0-0.1-0.1-0.2-0.1-0.3v-1.9h1.3q0 0 0 0 0.1 1.1 0.2 2.1c0 0.1 0 0.3 0 0.4-0.5 0-1 0.2-1.4-0.3zm3.7 0.3c-0.2 0.1-0.5 0-0.7 0v1.7h-1.3v-2.7h0.7q0.7 0 0.7-0.8v-0.7h1.3c0 0.7 0.1 1.3 0 2 0 0.2-0.4 0.4-0.7 0.5zm5.2 1.8h-2.5v-1.1h1.3c0-0.6 0.1-1.2 0-1.8 0-0.2-0.2-0.4-0.6-0.4-0.3 0-0.7 0-1 0v3.2h-1.2v-4.2h2.7q1.3 0 1.3 1.2c0 0 0 3.1 0 3.1zm-9.7-2.2c0.4 0.5 0.2 1.1 0.2 1.7 0 0.1-0.4 0.4-0.7 0.4-0.6 0.1-1.3 0.1-2 0.1v-1.1h1.6v-0.7h-1.9v1.7h-1.1v-4.2q0.2 0 0.4 0h2.9c0.3 0 0.8 0.4 0.8 0.7q0 0.2 0 0.3 0 0.1 0 0.2 0 0.1 0 0.2 0 0.2 0 0.3c0 0.1-0.1 0.3-0.2 0.4zm-0.9-1.1h-1.9v0.7h1.9z"/></svg>