<svg version="1.2" xmlns="http://www.w3.org/2000/svg" viewBox="0 0 24 24" width="24" height="24"><style></style><path fill-rule="evenodd" d="m20.8 8.7c0.4 2.5 0.2 5-0.7 7.4-0.7 1.9-2.1 2.9-4 3.4-1.3 0.3-2.7 0.4-4.1 0.4-1.5-0.1-2.9-0.1-4.4-0.5-2.1-0.6-3.3-1.9-3.9-4q-0.8-2.8-0.7-5.6c0.1-1.1 0.4-2.2 1-3.1 0.8-1.1 1.9-1.7 3.2-2q1.4-0.4 2.9-0.5 1.5-0.1 3.1 0c1.5 0 3 0.2 4.4 0.7 1.8 0.7 2.9 1.9 3.2 3.8m-0.9 1.9c0-0.3 0-0.8-0.1-1.3-0.3-2-1.3-3.4-3.3-4-1-0.4-2-0.5-3.1-0.6-1.9-0.1-3.7-0.1-5.6 0.4-1.4 0.4-2.6 1.2-3.2 2.7-0.3 0.8-0.5 1.7-0.5 2.6 0 1.7 0.1 3.3 0.6 4.9 0.6 1.9 1.8 3.2 3.7 3.6 2.2 0.6 4.5 0.6 6.7 0.2 2.3-0.4 3.7-1.8 4.3-3.9 0.3-1.4 0.5-2.9 0.5-4.6zm-5.7 7.5c-1.7 0.3-3.3 0.3-4.8-0.1-2-0.5-3.1-1.8-3.6-3.6-0.4-1.5-0.5-3-0.3-4.5 0.2-1.9 1.4-3.3 3.3-3.8 1.1-0.3 2.1-0.4 3.2-0.3 1.1-0.1 2.2 0 3.3 0.3 2.1 0.6 3.2 2.1 3.3 4.2 0.1 1.4 0 2.8-0.4 4.2-0.6 2-1.9 3.3-4 3.6zm3.1-2.9c0.8-1.9 1-3.8 0.5-5.8q-0.5-1.7-2.1-2.5c-0.4-0.2-0.5-0.1-0.5 0.4v1.9h0.1q-0.1 0.8 0 1.5 0 1.4-0.7 2.6-1.1 2-2.1 4-0.3 0.5 0.2 0.4 0.6 0 1.3-0.1c1.5-0.2 2.7-1 3.3-2.4zm-3.3-8.7q-0.9-0.1-2-0.2-1 0.1-2.1 0.2c-0.2 0-0.3 0.1-0.2 0.4l2.1 5.3c0 0.1 0.1 0.2 0.2 0.2 0.1 0 0.2-0.1 0.3-0.2q0.2-0.6 0.5-1.3 0.7-1.9 1.5-3.9c0.1-0.4 0.1-0.5-0.3-0.5zm-5.2 1.2h0.1v-0.5c0-0.4-0.1-0.5-0.5-0.3q-1.7 0.8-2.2 2.7c-0.3 1.5-0.2 3.1 0.2 4.6 0.8 2.7 2.6 3.5 5 3.6q0.4 0 0.2-0.4-1-1.9-2-3.8c-0.5-0.9-0.9-1.9-0.8-3 0-1 0-1.9 0-2.9z"/></svg>