<svg version="1.2" xmlns="http://www.w3.org/2000/svg" viewBox="0 0 24 24" width="24" height="24"><style></style><path fill-rule="evenodd" d="m21.5 12c0 2.3-4.3 4.2-9.5 4.2-5.3 0-9.5-1.9-9.5-4.2 0-2.3 4.3-4.2 9.5-4.2 5.3 0 9.5 1.9 9.5 4.2zm-11.5 0.2c-0.6 0.6-0.6 0.8-0.6 0.9 0 0.1 0.3 0.7 0.4 0.9 0.1 0.1 0.8 0.1 1.2 0.1h1.4c0 0 1.7 0.1 1.8-0.1 0.2-0.2 0.4-0.8 0.4-0.9 0-0.1 0-0.3-0.6-0.9-0.7-0.7-1.4-1.5-1.6-1.6-0.2 0-0.4 0-0.4 0h-0.1c0 0-0.1-0.1-0.3 0-0.2 0.1-0.9 0.9-1.6 1.6zm7.8 1c1-0.6 1.6-1.2 1.6-1.8 0-1.4-2.8-2.5-6.1-2.7-0.9-0.8-1.3-0.7-1.3-0.7h-0.1c0 0-0.4-0.1-1.3 0.7-3.2 0.2-6 1.3-6 2.7 0 0.6 0.6 1.2 1.5 1.8 0.3 0 0.5 0 0.8-0.2 0.5-0.3 2.5-2.6 3.6-3.6 1-0.9 1.4-0.8 1.4-0.8h0.2c0 0 0.4-0.1 1.4 0.8 1 1 3.1 3.3 3.6 3.6 0.2 0.2 0.5 0.2 0.7 0.2z"/></svg>