<svg version="1.2" xmlns="http://www.w3.org/2000/svg" viewBox="0 0 24 24" width="24" height="24"><style></style><path fill-rule="evenodd" d="m3.8 13.5c-0.2-1.4 0.2-2.6 1.3-3.6 1.9-1.6 3.7-3.3 5.6-4.9 0.7-0.7 1.7-0.7 2.6-0.1q0.8 0.6 1.5 1.3 2 1.8 4.1 3.7 0.2 0.2 0.4 0.5c0.8 0.9 1 2 0.7 3.2q-0.2-0.2-0.3-0.3c-1.6-1.4-3.2-2.7-5-3.8q-0.7-0.4-1.5-0.8-1.2-0.6-2.5 0c-1.4 0.6-2.6 1.5-3.8 2.4-1 0.7-1.9 1.5-2.8 2.3q-0.1 0-0.3 0.2m16.5 5.9q0 0 0 0zm0 0c-0.8-0.6-1.5-1.3-2.3-1.8q-1.7-1.3-3.6-2.5c-1.5-1.1-3.1-1-4.7 0-1.8 1.2-3.6 2.5-5.2 4-0.1 0.1-0.3 0.2-0.4 0.3-0.2-0.8-0.3-1.6 0.1-2.4 0.3-0.4 0.5-0.8 0.9-1.1q2.6-2.4 5.2-4.8c0.5-0.4 1-0.7 1.7-0.8q0.7 0 1.3 0.5 3 2.6 5.9 5.2 1.1 1 1.1 2.5z"/></svg>