<svg version="1.2" xmlns="http://www.w3.org/2000/svg" viewBox="0 0 24 24" width="24" height="24"><style></style><path fill-rule="evenodd" d="m16.6 13.7l2.4-3.4q0.1-0.2 0.3-0.3 0.2-0.1 0.5-0.1 0.2 0 0.4 0.1 0.2 0.1 0.4 0.3l2.3 3.4c0.1 0.1 0.1 0.2 0 0.3q0 0 0 0 0 0-0.1 0 0 0 0 0 0 0 0 0h-3.6c-0.1 0-0.2-0.1-0.2-0.2q0 0 0-0.1l0.2-0.4q0.1-0.1 0.2-0.1h1.5c0.1 0 0.2-0.1 0.2-0.2q0 0 0 0 0 0 0-0.1 0 0 0 0 0 0 0 0l-1.1-1.6q-0.1 0-0.1 0 0 0-0.1-0.1 0 0-0.1 0 0 0.1 0 0.1 0 0-0.1 0l-1.8 2.7q-0.1 0-0.2 0h-0.9c-0.1 0-0.2 0-0.2-0.1q0-0.1 0.1-0.2m-5.4 0.2v-3.4c0-0.3 0.2-0.6 0.6-0.6q0.2 0 0.3 0.2l2.9 2.3v-2.2c0-0.1 0.1-0.2 0.2-0.2h0.6c0.1 0 0.2 0.1 0.2 0.2v3.3c0 0.3-0.3 0.6-0.6 0.6q0 0-0.1 0 0 0-0.1 0 0-0.1-0.1-0.1 0 0-0.1 0l-2.8-2.3v2.2c0 0.1-0.1 0.1-0.2 0.2h-0.6c-0.1 0-0.2-0.1-0.2-0.2zm-3.8-3.9h3.1q0.1 0 0.1 0 0 0 0 0 0 0 0.1 0 0 0 0 0c0.1 0.1 0.1 0.2 0 0.3l-0.5 0.5h-2.6c-0.2 0.4 0 0.7 0 0.7h2.9q0 0 0.1 0 0 0.1 0 0.1 0.1 0 0.1 0 0 0.1 0 0.1v0.5q0 0 0 0 0 0.1-0.1 0.1 0 0 0 0-0.1 0.1-0.1 0.1h-2.9c-0.1 0.2-0.1 0.5 0 0.8h2.9q0 0 0.1 0 0 0 0 0.1 0.1 0 0.1 0 0 0.1 0 0.1v0.4q0 0.1 0 0.1 0 0.1-0.1 0.1 0 0 0 0-0.1 0-0.1 0h-3.1c-0.5 0-0.8-0.3-0.8-0.7v-2.5c0-0.4 0.3-0.8 0.8-0.8zm-3.2 0c1.1 0 2 0.9 2 2 0 1.1-0.7 2-1.8 2h-2.6c-0.4 0-0.8-0.4-0.8-0.8v-2.2q0-0.1 0.1-0.2l0.6-0.6q0.2-0.2 0.3-0.2h2.2zm1 2c0-0.7-0.5-1.2-1.2-1.2h-1.6c-0.2 0-0.4 0.2-0.4 0.4v1.6c0 0.2 0.2 0.4 0.4 0.4h1.7c0.7 0 1.1-0.5 1.1-1.2z"/></svg>