<svg version="1.2" xmlns="http://www.w3.org/2000/svg" viewBox="0 0 24 24" width="24" height="24"><style></style><path fill-rule="evenodd" d="m12 20.5c-4.7 0-8.5-3.8-8.5-8.5 0-4.7 3.8-8.5 8.5-8.5 4.7 0 8.5 3.8 8.5 8.5 0 4.7-3.8 8.5-8.5 8.5zm0-16.6c-4.5 0-8.1 3.6-8.1 8.1 0 4.5 3.6 8.1 8.1 8.1 4.5 0 8.1-3.6 8.1-8.1 0-4.5-3.6-8.1-8.1-8.1zm0.1 13.1c0.9 0.8 1.8 1.4 2.9 1.7-1.9 0.1-3.7-0.4-5.1-1.7-1.5-1.2-2.1-3-2.3-4.9-1 0.8-1.5 1.9-2.1 2.9-0.2-1.9 0-3.8 1.3-5.5 1.3-1.6 3.1-2.2 5.2-2.5-0.5-0.4-0.9-0.7-1.4-1-0.5-0.3-1-0.4-1.5-0.6 1.9-0.1 3.7 0.3 5.1 1.6 1.5 1.3 2.1 3 2.3 5 1-0.9 1.5-1.9 2.1-3 0.2 2 0 3.9-1.3 5.5-1.2 1.7-3.1 2.3-5.2 2.5zm2.1-4.5c0-1.9-0.6-3.5-1.6-4.8-0.6-0.7-0.5-0.9-1.2 0-2.2 2.9-1.8 6.4 0.5 9.1 0.1 0.2 0.3 0.2 0.4 0 1.2-1.4 1.9-2.9 1.9-4.3z"/></svg>