<svg version="1.2" xmlns="http://www.w3.org/2000/svg" viewBox="0 0 24 24" width="24" height="24"><style></style><path  d="m11.8 9.6c0.3-0.3 0-0.5 0-0.5l-6.1-4.8c0 0-0.1 0-0.1 0-0.1 0-0.1 0.2-0.1 0.2v9.5c0 0 0 0.2 0.1 0.3 0.1 0 0.1 0 0.3-0.1 1.2-0.9 5.6-4.4 5.9-4.6zm6.7-5.4l-6.3 4.8c0 0-0.3 0.3 0 0.5 0.2 0.3 2.1 2.2 2.8 3.3 0.6 1.2 1.2 2.8-1.8 5.3 0 0-0.7 0.7-0.8 0.9-0.2 0.2-0.3 0.6-0.3 0.8 0.4-0.3 6.3-4.9 6.3-4.9 0 0 0.3-0.2 0-0.4-0.2-0.3-1.7-1.8-2.2-2.5-0.5-0.8-1.5-2.3-1-3.5 0.6-1.3 1.8-2.5 2.3-2.9 0.5-0.5 1-0.7 1-1.4"/></svg>