<svg version="1.2" xmlns="http://www.w3.org/2000/svg" viewBox="0 0 24 24" width="24" height="24"><style></style><path fill-rule="evenodd" d="m23 10.4v0.6c0 0.6-0.5 1.1-1.1 1.1h-0.1v1.5h-0.6v-1.5h-0.2c-0.6 0-1.1-0.5-1.1-1.1v-0.6h0.6v0.6c0 0.3 0.2 0.5 0.5 0.5h0.9c0.3 0 0.5-0.2 0.5-0.5v-0.6zm-6.5 0h3v0.6h-1.2v2.6h-0.6v-2.6h-1.2c0 0 0-0.6 0-0.6zm-1 0h0.6v3.2h-0.6zm-2.2 2.7h1.9v0.5h-2.5v-3.2h0.6zm-4.1-2.6h3.1v0.6h-2.5v0.7h1.7v0.6h-1.7v0.7h2.5v0.6h-3.1zm-0.4 1.1v1.1c0 0.6-0.5 1-1 1h-2.3v-3.2h2.3c0.5 0 1 0.5 1 1.1zm-0.6 0c0-0.3-0.2-0.5-0.4-0.5h-1.7v2h1.7c0.2 0 0.4-0.2 0.4-0.4zm-3.7-1.1h0.6v3.3h-0.6zm-3.5 0h3.1v0.5h-2.5v0.8h1.7v0.6h-1.7v1.3h-0.6c0 0 0-3.2 0-3.2z"/></svg>