<svg version="1.2" xmlns="http://www.w3.org/2000/svg" viewBox="0 0 24 24" width="24" height="24"><style></style><path fill-rule="evenodd" d="m21.5 12c0 2.9-4.2 5.1-9.5 5.1-5.3 0-9.5-2.2-9.5-5.1 0-2.9 4.2-5.1 9.5-5.1 5.3 0 9.5 2.2 9.5 5.1zm-17.5 0c0 1.6 3 3.4 7.3 3.6l-0.3-2.3c-0.3-1.8-1.3-2.2-1.3-2.2l-4.1-1.2c-1.1 0.6-1.6 1.4-1.6 2.1zm6.1-2.3c0.1 0.1 1.3 0.5 2 2.2 0.7-1.7 1.9-2.2 2-2.2l2.3-0.7c-1.2-0.4-2.7-0.6-4.4-0.6-1.7 0-3.1 0.2-4.4 0.6l2.5 0.7zm9.9 2.3c0-0.7-0.6-1.5-1.6-2.1l-3.9 1.2c0 0-1 0.4-1.3 2.2l-0.3 2.3c4.2-0.2 7.1-2 7.1-3.6z"/></svg>