<svg version="1.2" xmlns="http://www.w3.org/2000/svg" viewBox="0 0 24 24" width="24" height="24"><style></style><path fill-rule="evenodd" d="m21.5 10.1c0 0.1-0.1 0.1-0.1 0.2q0 1.1-0.1 2.2c-0.1 0.5-0.3 0.9-0.7 1.3-0.5 0.5-1.1 0.9-1.8 1.2-1.2 0.5-2.3 0.8-3.6 1.1q-1.5 0.3-3.1 0.5c-0.2 0.1-0.5 0-0.7 0q-2.8-0.5-5.6-1.3c-0.7-0.2-1.4-0.5-2-0.9-0.5-0.4-0.9-0.9-1-1.5q-0.1-0.6-0.1-1.1-0.1-1.1-0.2-2.1c0-0.1 0-0.1 0-0.1v-0.5q0-0.1 0-0.1 0.2-1.1 1.3-1.2l3.8-0.2q1.5-0.2 2.9-0.3c0.9 0 1.8 0 2.7 0q1.7 0.2 3.3 0.3 1.6 0.1 3.1 0.2c0.4 0 0.9 0.1 1.2 0.3q0.6 0.3 0.7 0.9c0 0 0 0.1 0 0.1v1m-0.8-0.9c0-0.3 0-0.4-0.3-0.5q-0.5-0.1-0.9-0.2c-1 0-2-0.1-3-0.2q-0.3 0-0.6 0l-0.9-0.1q-1 0-1.9-0.1c-0.4 0-0.8-0.1-1.2-0.1q-1 0.1-2.1 0.1l-0.9 0.1-0.9 0.1q-1.1 0-2.1 0.1-1.1 0.1-2.1 0.2c-0.4 0-0.5 0.2-0.5 0.5q0 0.1 0 0.3 0 0.7 0 1.3v0.1l0.1 0.8q0 0.5 0 0.9c0.1 0.4 0.2 0.7 0.4 0.9q0.4 0.4 0.8 0.6c0.7 0.5 1.6 0.7 2.4 0.9q0.6 0.2 1.3 0.3l0.8 0.2h0.1q1.1 0.3 2.3 0.5c0.2 0 0.4 0 0.6 0q1.4-0.2 2.7-0.5h0.1l0.9-0.2c1.1-0.2 2.1-0.5 3.1-1 0.4-0.2 0.9-0.5 1.2-0.9 0.3-0.3 0.5-0.6 0.5-1q0-0.3 0-0.5v-0.2l0.1-0.8v-0.1q0-0.7 0-1.5zm-10.9 3.4q-0.1 0-0.1 0zm0.2 0l0.6 0.1q0.6 0.1 1.3 0.1h0.2q0.2 0 0.4 0 0.1 0 0.2 0 0.6-0.1 1.2-0.2h0.4v0.4q0 0.8 0 1.7-0.4 0-0.7 0.1-0.7 0.1-1.5 0.2h-0.1q-0.1 0-0.3 0-0.7-0.1-1.3-0.3h-0.5l-0.1-1.7v-0.4q0.1 0 0.2 0zm4.4-3.5l-0.1 1.1v0.9l-0.3 0.1h-0.5q-0.7 0.1-1.4 0.1h-0.1q-0.3 0-0.5 0-0.1 0-0.2 0l-0.9-0.1-0.6-0.1q0-0.8-0.1-1.6v-0.4q0.2 0 0.4 0 0.3 0 0.6-0.1 0.6 0 1.3 0h0.1q0.3 0 0.6 0 0.1 0 0.3 0 0.6 0.1 1.3 0.1h0.1zm1.7 5.1v-0.2q0-0.4 0-0.9 0-0.3 0-0.7 1.3-0.1 2.5-0.3h0.6l0.3-0.1v0.1q0 0.4-0.3 0.7c-0.2 0.2-0.5 0.4-0.9 0.7-0.7 0.3-1.5 0.5-2.2 0.7zm3.6-4.7q0 0.5-0.1 1v0.1l-3.4 0.3v-0.5-1.2h0.1l0.8 0.1q0.9 0 1.9 0.1 0.3 0 0.7 0.1zm-11.9 1.4l-2.4-0.2-0.7-0.1h-0.1-0.1q0-0.2 0-0.3l-0.1-0.6v-0.2q0-0.1 0.1-0.1 0.9-0.1 1.8-0.1h0.1q0.7-0.1 1.4-0.1h0.1l0.1 1.6v0.1c0 0-0.1 0-0.2 0zm0.2 3.3q0 0 0 0zm-0.5-0.1c-0.7-0.2-1.5-0.4-2.1-0.8q-0.3-0.1-0.6-0.5-0.2-0.1-0.2-0.4 0-0.2 0-0.4h0.1l1.3 0.2 2 0.2q0 0.8 0 1.6v0.2q-0.3-0.1-0.5-0.1z"/></svg>