<svg version="1.2" xmlns="http://www.w3.org/2000/svg" viewBox="0 0 24 24" width="24" height="24"><style></style><path fill-rule="evenodd" d="m5.9 10.8q-0.5 1.2-1.1 2.5-0.1 0.2-0.3 0.2h-1c0.2-0.5 0.4-0.9 0.6-1.3-0.8-0.2-1.5 0.2-1.8 0.9-0.1 0.3-0.2 0.4-0.5 0.4q-0.4 0-0.8 0 0-0.2 0.1-0.3 0.6-1.2 1.2-2.5c0-0.1 0.1-0.2 0.3-0.2q0.4 0 0.9 0-0.2 0.6-0.5 1.2 0.7 0 1.2 0c0.1-0.1 0.2-0.1 0.2-0.2q0.3-0.4 0.4-0.8c0.1-0.1 0.2-0.2 0.2-0.2h1.1q-0.1 0.2-0.1 0.3m3.3 2.5c0 0-0.1 0.1-0.2 0.1q-0.3 0-0.7 0c0.1-0.2 0.1-0.3 0.2-0.6-0.5 0.1-0.9 0.1-1.4 0.2-0.1 0-0.3 0.1-0.4 0.2-0.2 0.2-0.4 0.2-0.7 0.2h-0.6q0 0 0 0c0.8-0.7 1.5-1.4 2.2-2.1 0.7-0.6 1.6-0.8 2.5-0.7q0 0 0.1 0-0.3 1-0.7 1.9-0.1 0.4-0.3 0.8zm-1.7-0.9h1.1c0.1 0 0.2-0.1 0.2-0.1q0.2-0.6 0.4-1.1c-0.4 0-1.2 0.5-1.7 1.2zm7.1-1q-1 1-2 1.9c-0.1 0.1-0.2 0.2-0.4 0.2q-0.4 0-0.9 0c0-0.1-0.1-0.1-0.1-0.2q-0.2-1.3-0.3-2.7c0 0 0.1 0 0.1 0h1q0.1 0.8 0.2 1.7 0.1-0.1 0.2-0.1 0.8-0.8 1.5-1.5c0.1-0.1 0.2-0.2 0.4-0.2h1.1q-0.4 0.5-0.8 0.9zm3.1 1.8c-0.1 0.2-0.1 0.2-0.3 0.2h-0.6c0-0.2 0.1-0.3 0.2-0.5-0.6 0-1.1-0.1-1.6 0.1q-0.1 0.1-0.2 0.1c-0.1 0.1-0.2 0.3-0.3 0.3-0.2 0.1-0.4 0-0.5 0h-0.6q0.1-0.1 0.1-0.1 1-0.9 1.9-1.8 1.1-1 2.6-0.9 0.1 0 0.3 0-0.2 0.5-0.4 1.1-0.3 0.7-0.6 1.5zm-1.8-0.8h1.2c0 0 0.1-0.1 0.1-0.1q0.2-0.6 0.5-1.2c-0.8 0.2-1.2 0.8-1.8 1.3zm4.6 0.5h2.4c-0.3 0.3-0.5 0.6-0.9 0.6-0.7-0.1-1.5-0.1-2.2-0.1q-0.2 0-0.3 0-0.7-0.1-0.4-0.7 0.4-1 0.8-2c0.1-0.1 0.1-0.2 0.2-0.2h1.2c-0.4 0.3-0.5 0.7-0.7 1.1l-0.3 0.9c-0.2 0.3-0.1 0.4 0.2 0.4z"/></svg>