<svg version="1.2" xmlns="http://www.w3.org/2000/svg" viewBox="0 0 24 24" width="24" height="24"><style></style><path  d="m6.1 11.4q-0.1 0.3-0.1 0.6c0 3.3 2.7 6 6 6 3.3 0 6-2.7 6-6q0-0.3-0.1-0.6l-0.6 0.1q0.1 1.1-0.3 2.2-0.3 1-1.1 1.9-0.7 0.8-1.7 1.3-1.1 0.4-2.2 0.4c-2.9 0-5.3-2.4-5.3-5.3q0-0.2 0-0.5-0.3-0.1-0.6-0.1zm10.7-1.8h0.7c-0.9-2.1-3-3.6-5.5-3.6-2.5 0-4.6 1.5-5.5 3.6h0.7c0.9-1.7 2.7-2.9 4.8-2.9 2.1 0 3.9 1.2 4.8 2.9m6 0.2h-21.6c0 0-0.4 0.1 0 0.4 0.3 0.3 0.4 0.4 0.6 0.5 0.2 0 6.1 0.1 8.6 1.9 0.6 0.4 1.3 1.3 1.3 1.4 0.1 0.1 0.2 0.1 0.2 0.1h0.2c0 0 0.1 0 0.2-0.1 0.1-0.1 0.7-1 1.3-1.4 2.6-1.8 8.4-1.9 8.6-1.9 0.2-0.1 0.3-0.2 0.7-0.5 0.3-0.3 0-0.4 0-0.4"/></svg>