<svg version="1.2" xmlns="http://www.w3.org/2000/svg" viewBox="0 0 24 24" width="24" height="24"><style></style><path fill-rule="evenodd" d="m12.3 16.8c-2.4 0-4.4-0.3-6.3-1-1.1-0.5-2-1-2.8-1.9-0.3-0.4-0.6-0.9-0.7-1.4-0.1-0.9 0.1-1.7 0.7-2.4 0.6-0.6 1.3-1.1 2-1.5 1.1-0.6 2.2-0.9 3.4-1.1q2.1-0.4 4.2-0.3c2 0.1 4 0.4 5.9 1.3 0.8 0.4 1.5 1 2.1 1.7 0.5 0.6 0.7 1.2 0.7 1.9-0.1 0.8-0.4 1.4-0.9 1.9-0.6 0.7-1.4 1.2-2.3 1.6q-2 0.9-4.1 1.1c-0.8 0.1-1.5 0.1-1.9 0.1m-9.1-4.8c0 0.5 0.2 0.9 0.5 1.3q0.5 0.7 1.2 1.1c0.3 0.1 0.3 0.1 0.5-0.2 0.9-2 2-4 3.5-5.7 0-0.1 0-0.1 0-0.2 0 0-0.1 0-0.1 0h-0.2c-1 0.1-2 0.4-2.9 0.9-0.7 0.4-1.4 0.8-1.9 1.4-0.3 0.4-0.5 0.9-0.6 1.4zm9.4-4h-0.4q-0.7-0.1-1.2 0.4-0.8 0.8-1 1.9c-0.1 0.6 0.1 1 0.6 1.1 0.3 0 0.7 0 1-0.1q1-0.2 1.9-0.5c1.2-0.4 2.3-0.9 3.3-1.7 0.1 0 0.2-0.2 0.3-0.3-0.1-0.1-0.3-0.2-0.4-0.2q-2-0.6-4.1-0.6zm-1.2 8.1h0.3q0.7 0 1.3-0.5 0.8-0.8 1-2c0.1-0.7-0.4-1-0.9-1-0.2 0-0.5 0-0.7 0.1q-1.2 0.3-2.3 0.7c-1.1 0.3-2.1 0.8-3 1.5-0.1 0.1-0.2 0.2-0.2 0.3 0.1 0.1 0.2 0.2 0.3 0.2q2.1 0.6 4.2 0.7zm9.3-4.1q0-0.1 0-0.2c-0.2-1.1-0.9-1.7-1.7-2.2-0.2-0.1-0.3-0.1-0.4 0.1q-0.3 0.8-0.7 1.5c-0.8 1.5-1.6 2.9-2.6 4.1q-0.1 0.1-0.2 0.3c0 0-0.1 0.1 0 0.1 0 0 0 0 0.1 0q0.1 0 0.2 0 1.6-0.3 3-0.9c0.6-0.4 1.3-0.8 1.8-1.4 0.3-0.4 0.5-0.9 0.5-1.4z"/></svg>