<svg version="1.2" xmlns="http://www.w3.org/2000/svg" viewBox="0 0 24 24" width="24" height="24"><style></style><path fill-rule="evenodd" d="m14.5 17q-1.2-3.6-2.5-7.2-1.2 3.6-2.4 7.2-0.1 0-0.1 0 0 0-0.1 0 0-0.1-0.1-0.1 0 0 0 0c-1.2-0.1-2.3-0.4-3.3-0.8-0.8-0.2-1.5-0.6-2.1-1.2-0.7-0.5-1.1-1.3-1.3-2.1q-0.3-1.2 0.3-2.2c0.4-0.7 0.8-1.1 1.4-1.6 0.8-0.5 1.6-0.9 2.5-1.2q1.3-0.4 2.7-0.6 1.4-0.2 2.9-0.1c1.6 0 3.2 0.2 4.7 0.7q1.3 0.4 2.4 1.1 0.8 0.5 1.4 1.3c0.4 0.6 0.7 1.3 0.6 2q0 0.9-0.5 1.7c-0.5 0.8-1.1 1.3-1.9 1.8-0.6 0.3-1.3 0.6-2 0.8q-1.2 0.3-2.5 0.5zm-2.5-8.4q0.1 0.1 0.2 0.2l1.2 1.6q1.3 1.8 2.6 3.6c0.1 0 0.1 0.1 0.2 0.1q1.3-0.2 2.4-0.8 0.5-0.3 0.8-0.7 0.5-0.6 0.4-1.3 0-0.5-0.3-0.9-0.1-0.2-0.2-0.3-0.1-0.1-0.2-0.2-0.1-0.1-0.2-0.2-0.1-0.1-0.2-0.2c-0.7-0.5-1.4-0.9-2.1-1.1-1.4-0.5-2.7-0.7-4.1-0.7q-1.8-0.1-3.5 0.3c-0.9 0.2-1.7 0.4-2.6 0.9-0.5 0.3-0.9 0.6-1.3 1q-0.5 0.4-0.7 1-0.3 0.9 0.3 1.6 0.2 0.4 0.6 0.6 0.7 0.5 1.6 0.8 0.5 0.1 1 0.2 0.1 0 0.2-0.1 0 0 0.1-0.1 1.8-2.5 3.7-5.1 0.1-0.1 0.1-0.1z"/></svg>