<svg version="1.2" xmlns="http://www.w3.org/2000/svg" viewBox="0 0 24 24" width="24" height="24"><style></style><path fill-rule="evenodd" d="m13 6.2c0.8 0.1 1.5 0.2 2.2 0.4 1.8 0.3 3.4 1 4.7 2.2 0.9 0.8 1.5 1.7 1.6 3 0.1 1-0.3 1.9-1 2.7-1.1 1.3-2.5 2.1-4.1 2.6-3.6 1.1-7.1 0.9-10.6-0.7q-0.3-0.2-0.6-0.4-0.3-0.2-0.6-0.4-0.3-0.2-0.6-0.5-0.2-0.2-0.5-0.5c-1.3-1.6-1.3-3.6 0-5.2 1.2-1.4 2.8-2.2 4.6-2.7 0.8-0.2 1.7-0.3 2.6-0.4q0.1-0.1 0.3-0.1zm-1 0.4c0 0 0 0.1 0 0.2q0.3 1.8 0.7 3.6c0 0.1 0.3 0.2 0.4 0.2q3 0 6.1 0 0.1 0 0.2 0c-0.8-2.6-4.7-4.1-7.4-3.9zm-7.5 3.9h6.4c0.3 0 0.3-0.1 0.3-0.3q0.3-1.2 0.5-2.5 0.1-0.6 0.2-1.2c-3.3-0.1-6.8 1.8-7.4 4zm11.3 6.1c2.8-1 4.7-3.7 3.7-6l-6.2 1.3c0.8 1.6 1.6 3.1 2.5 4.7zm-5.2-4.7c-2.1-0.4-4.1-0.9-6.2-1.3-1 2.4 0.9 5 3.7 6 0.9-1.6 1.7-3.1 2.5-4.7zm5.1 4.8c-1.3-1.4-2.5-2.6-3.8-3.9-1.2 1.3-2.4 2.5-3.7 3.9 2.5 0.8 5 0.8 7.5 0z"/></svg>