<svg version="1.2" xmlns="http://www.w3.org/2000/svg" viewBox="0 0 24 24" width="24" height="24"><style></style><path fill-rule="evenodd" d="m17.2 9.9h1.5v0.3q0 0.1 0 0.1 0.1 0.1 0.1 0.1 0.1-0.1 0.1-0.1 0.3-0.4 0.8-0.5 0.3 0 0.6 0 0.5 0.1 1 0.5 0.4 0.4 0.6 0.9 0.1 0.3 0.1 0.7 0 0.2 0 0.4 0 0.6-0.2 1.1-0.1 0.4-0.4 0.8-0.4 0.4-0.9 0.5-0.4 0.1-0.7 0-0.3 0-0.5-0.1-0.2-0.1-0.3-0.2 0 0-0.1-0.1 0 0 0 0 0 0 0 0 0 0-0.1 0 0 0 0 0-0.1-0.1-0.1 0v1.7h-1.5c0 0 0-6 0-6m1.5 2.4c0 0.1 0 0.3 0 0.4q0 0.2 0.1 0.4 0.1 0.3 0.5 0.4 0.2 0.1 0.4 0 0.3 0 0.5-0.3 0.1-0.1 0.1-0.3 0.1-0.3 0.1-0.6 0-0.3 0-0.5 0-0.1 0-0.1 0-0.1 0-0.1 0-0.1 0-0.1-0.1-0.1-0.1-0.1 0-0.1-0.1-0.2 0 0-0.1-0.1 0-0.1-0.1-0.1-0.1 0-0.1-0.1-0.1 0-0.1 0-0.1 0-0.1 0-0.1 0-0.1 0 0 0-0.1 0-0.4 0-0.6 0.3-0.1 0.2-0.2 0.4c0 0.3 0 0.5 0 0.7zm-16.7-0.9h1.6v0.8q0 0.2 0.1 0.4 0.2 0.4 0.6 0.5 0.3 0.1 0.7-0.1 0.4-0.1 0.4-0.6 0-0.1 0.1-0.2v-4.3h1.6v4.3q0 0.5-0.2 0.9-0.2 0.8-1 1.1-0.3 0.2-0.7 0.2-0.4 0.1-0.9 0.1-0.4 0-0.9-0.2-0.3-0.1-0.6-0.3-0.5-0.3-0.6-0.8-0.1-0.3-0.2-0.6 0-0.2 0-0.4v-0.8zm11.8 1.1q0 0.3 0.1 0.5 0.1 0.2 0.3 0.4 0.1 0 0.2 0.1 0.2 0 0.4 0 0.4-0.1 0.5-0.4 0 0 0 0h1.6c0 0 0 0-0.1 0.1q0 0.2-0.2 0.5-0.2 0.3-0.5 0.5-0.5 0.3-1 0.3-0.3 0.1-0.6 0.1-0.5 0-0.9-0.2-0.5-0.2-0.8-0.6-0.3-0.4-0.5-1 0-0.3 0-0.7 0-0.5 0.2-0.9 0.2-0.5 0.5-0.9 0.4-0.4 1-0.6 0.3 0 0.6 0 0.4 0 0.7 0.1 0.9 0.2 1.3 1 0.1 0.3 0.2 0.7 0.1 0.5 0.1 0.9v0.1zm1.6-1q0-0.2-0.1-0.4 0 0-0.1-0.1 0 0-0.1-0.1 0-0.1-0.1-0.1 0 0-0.1-0.1-0.1 0-0.1 0-0.1 0-0.2 0 0 0-0.1 0-0.1 0-0.1 0-0.4 0.1-0.5 0.4-0.1 0.2-0.1 0.4h1.6zm-3.5 1h-3q0 0.3 0.1 0.5 0.1 0.4 0.6 0.5 0.2 0 0.4 0 0.3-0.1 0.4-0.4 0 0 0 0h1.5v0.1q0 0.2-0.1 0.4-0.3 0.3-0.6 0.5-0.4 0.3-1 0.4-0.2 0.1-0.4 0.1-0.1 0-0.3 0-0.2 0-0.4-0.1-0.1 0-0.3-0.1-0.5-0.1-0.9-0.6-0.3-0.4-0.5-1-0.1-0.4 0-0.9 0-0.4 0.2-0.7 0.1-0.5 0.5-0.9 0.4-0.5 1-0.6 0.3 0 0.5 0 0.4 0 0.8 0.1 0.6 0.1 1 0.6 0.2 0.3 0.3 0.6 0.1 0.4 0.2 0.7 0 0.4 0 0.7zm-2.9-0.9h1.5q0-0.2-0.1-0.4 0-0.1 0-0.2-0.1 0-0.1-0.1-0.1 0-0.2 0 0-0.1-0.1-0.1-0.2-0.1-0.5 0-0.3 0-0.5 0.4 0 0.1 0 0.2 0 0.1-0.1 0.2z"/></svg>