<svg version="1.2" xmlns="http://www.w3.org/2000/svg" viewBox="0 0 24 24" width="24" height="24"><style></style><path fill-rule="evenodd" d="m21.1 13.3q-0.3 0.7-0.9 1.1-0.6 0.6-1.4 1c-0.9 0.5-1.9 0.8-2.9 1q-0.7 0.2-1.4 0.3-0.6 0-1.2 0.1-0.8 0.1-1.7 0-0.6 0-1.2 0-0.6-0.1-1.2-0.2-0.8-0.1-1.6-0.3-1.1-0.3-2.1-0.7-0.9-0.4-1.7-1.1c-0.4-0.3-0.7-0.6-1-1.1q-0.3-0.5-0.3-1.2c-0.1-0.5 0.1-1.1 0.3-1.5q0.4-0.6 0.9-1.1 0.5-0.4 1.1-0.7c0.9-0.5 1.8-0.9 2.9-1.1q0.9-0.2 1.8-0.4 0.7 0 1.3-0.1 0.6 0 1.1 0 0.9 0 1.7 0 1.7 0.2 3.3 0.7 1.5 0.4 2.7 1.2 0.7 0.5 1.2 1.1 0.4 0.5 0.6 1.2 0.2 1-0.3 1.8zm-0.7-2.2q-0.2-0.4-0.6-0.7-0.5-0.4-1-0.7-1.1-0.5-2.3-0.8-1.2-0.3-2.5-0.4-0.8-0.1-1.5-0.1-1.1-0.1-2.2 0-0.6 0.1-1.2 0.2-0.8 0.1-1.6 0.3-1.1 0.2-2.1 0.7-0.6 0.3-1.2 0.7-0.4 0.3-0.7 0.8-0.4 0.6-0.3 1.3 0.2 0.5 0.5 0.9 0.4 0.5 1 0.8 0.9 0.5 1.9 0.8 0.9 0.3 1.9 0.5 0.5 0.1 0.9 0.1 0.4 0.1 0.8 0.1 0.5 0.1 0.9 0.1 0.4 0 0.8 0 1 0 2-0.1 0.6-0.1 1.2-0.2 0.7-0.1 1.5-0.2 1.1-0.3 2.1-0.8 0.7-0.4 1.2-0.9 0.4-0.3 0.7-0.8 0.1-0.3 0.1-0.7 0-0.5-0.3-0.9zm-4.2 0.3q-0.5 1.4-1 2.9h-1.2l1.4-4.2q-0.1-0.1-0.2-0.1-0.1 0-0.1-0.1v-0.1c0.1 0 1.6-0.1 1.9 0q0.7 2.2 1.5 4.5h-1.2q-0.6-1.5-1.1-2.9zm-5.8 2.9h-1.3q-0.1 0-0.1-0.1-0.7-0.8-1.4-1.7 0-0.1-0.1-0.2v2c-0.1 0-1.2 0-1.3 0v-4.2q-0.1-0.1-0.2-0.1 0-0.1-0.1-0.1v-0.2h1.6v1.7q0-0.1 0.1-0.1 0.5-0.7 1.1-1.5 0-0.1 0.1-0.1h1.4q-0.8 1.1-1.5 2.1 0.9 1.2 1.8 2.5h-0.1zm2.4 0h-1.3v-4.3q-0.1 0-0.2-0.1v-0.2c0 0 1.3 0 1.5 0v4.5q0 0.1 0 0.1z"/></svg>