<svg version="1.2" xmlns="http://www.w3.org/2000/svg" viewBox="0 0 24 24" width="24" height="24"><style></style><path fill-rule="evenodd" d="m16.9 5c0.6 0.8 1.1 1.6 0.9 2.7-0.1 1.2-0.1 2.4-0.2 3.5-0.1 1.3-0.1 2.6-0.5 3.8-0.5 1.5-1.8 2.4-3.1 3.3q-1 0.7-2 0.7c-0.6 0-1.3-0.2-2-0.7-1.3-0.9-2.6-1.8-3.1-3.3-0.4-1.2-0.4-2.5-0.5-3.8-0.1-1.1 0-2.3-0.2-3.5-0.2-1.1 0.4-1.9 0.9-2.7zm-1.2 4.4c1.2-0.4 1.5-1 1.2-2.3-0.3 0.4-0.5 0.9-0.8 1.2-0.4 0.3-1 0.3-1.5 0.4 0.8-0.7 1.6-1.4 1.3-2.7-0.6 0.8-1.1 1.4-1.7 2.2l-0.4-0.7c-0.5 0.7-1.1 1.5-1.8 2.4-0.6-0.9-1.2-1.7-1.7-2.4-0.1 0-0.2 0.3-0.4 0.7-0.6-0.8-1.2-1.4-1.7-2.2-0.3 1.3 0.5 2 1.3 2.7-0.5-0.1-1.1-0.1-1.5-0.4-0.4-0.3-0.5-0.8-0.8-1.2-0.3 1.3 0 1.9 1.2 2.3 0.5 0.2 1.1 0.3 1.6 0.4 0.3 0.1 0.6 0.3 0.9 0.5q-0.1 0.1-0.2 0.3l-1.7-0.5c0 1 0.4 1.5 1.4 1.5 0.4 1 0.3 2-0.1 3-0.5 1.2 0.2 2.6 1.3 3.1q0.2 0 0.4 0 0.2 0 0.4 0c1.2-0.5 1.9-1.9 1.4-3.1-0.5-1-0.5-2-0.1-3 1-0.1 1.4-0.5 1.4-1.5l-1.8 0.4q0-0.1-0.1-0.2c0.3-0.2 0.6-0.4 0.8-0.5 0.6-0.1 1.1-0.2 1.7-0.4z"/></svg>