<svg version="1.2" xmlns="http://www.w3.org/2000/svg" viewBox="0 0 24 24" width="24" height="24"><style></style><path  d="m15.7 6.1q-0.1 0.1-0.2 0.2-0.2 0.3-0.5 0.7l-0.3 0.5-0.4 0.5q-0.2 0.3-0.4 0.5-0.4 0.5-0.7 1.1l-0.6 0.7q-0.2 0.4-0.5 0.7-0.3 0.4-0.6 0.9-0.3 0.4-0.6 0.8-0.2 0.2-0.2 0.4 0 0.2 0 0.4 0 0.2 0.2 0.3 0.1 0.1 0.2 0.1h8.2q0 0 0-0.1 0.1-0.2 0.2-0.5 0-0.2 0.1-0.3 0-0.2 0-0.4 0.1-0.2 0.1-0.4v-0.5q0-0.2 0-0.4-0.1-0.3-0.2-0.5 0-0.2-0.1-0.5-0.1 0-0.1 0 0-0.1 0-0.1 0 0 0-0.1-0.1 0-0.1 0-0.2-0.4-0.4-0.7-0.1-0.3-0.4-0.5-0.3-0.4-0.7-0.8-0.3-0.2-0.5-0.4-0.5-0.3-1.1-0.5-0.2-0.1-0.3-0.1 0 0 0 0l0.6-0.8q0.1 0 0.2 0.1 0.3 0.1 0.6 0.3 0.4 0.2 0.7 0.4 0.4 0.3 0.8 0.6 0.3 0.2 0.6 0.5 0.4 0.3 0.7 0.8 0.2 0.2 0.3 0.5 0.1 0.2 0.2 0.5 0.1 0.3 0.2 0.6 0.1 0.2 0.1 0.4 0.1 0.3 0.1 0.6 0.1 0.3 0.1 0.7 0 0.1 0 0.3-0.1 0.2-0.1 0.4l-0.1 0.5q-0.1 0.2-0.1 0.4-0.2 0.4-0.4 0.7-0.2 0.3-0.4 0.6-0.2 0.1-0.3 0.2 0 0-0.1 0h-10.3q-0.1 0-0.2 0-0.1 0-0.1 0-0.1 0-0.2 0 0 0-0.1-0.1-0.3-0.1-0.6-0.4-0.1-0.2-0.1-0.4-0.1-0.2-0.1-0.4-0.1-0.3-0.1-0.6 0.1-0.4 0.2-0.7 0.1-0.1 0.2-0.3 0.1-0.2 0.3-0.5 0.2-0.2 0.3-0.4 0.2-0.3 0.4-0.6 0.2-0.3 0.4-0.6l0.7-0.9q0.1-0.1 0.2-0.3l0.3-0.4q0.3-0.5 0.7-1 0.2-0.4 0.5-0.7 0.2-0.4 0.4-0.7 0 0 0.1 0-0.1 0-0.2 0h-0.7q-0.2 0-0.5 0-0.1 0-0.3 0-0.1 0.1-0.3 0.1h-0.4q-0.2 0.1-0.3 0.1-0.4 0.1-0.7 0.2-0.2 0-0.4 0.1-0.3 0.1-0.6 0.3-0.5 0.2-1 0.5-0.3 0.2-0.6 0.5-0.4 0.3-0.6 0.6-0.3 0.3-0.5 0.6-0.2 0.4-0.4 0.8-0.2 0.3-0.4 0.8 0 0.2-0.1 0.5 0 0.3 0 0.6 0 0.2 0 0.4l0.1 0.4q0 0.2 0.1 0.4 0.1 0.4 0.3 0.8 0.2 0.3 0.4 0.7 0.2 0.3 0.4 0.5 0.2 0.3 0.4 0.5 0.4 0.3 0.7 0.5 0.3 0.2 0.5 0.3 0.3 0.2 0.6 0.3 0.3 0.2 0.7 0.3 0.3 0.1 0.5 0.1 0.1 0.1 0.3 0.1 0.2 0.1 0.4 0.1 0.2 0 0.4 0.1 0.2 0 0.4 0.1 0.2 0 0.3 0 0.2 0 0.4 0l0.3 0.1h0.8q0.2 0 0.5 0 0.2 0 0.4 0 0.1-0.1 0.3-0.1 0.3 0 0.6-0.1 0.2 0 0.4-0.1l0.4-0.1q0.3-0.1 0.5-0.2 0.4-0.1 0.7-0.3 0.3-0.1 0.7-0.3 0.4-0.3 0.7-0.6 0 0 0.1 0 0.7 0 1.4-0.1h0.1v0.1q-0.1 0-0.2 0.1-0.3 0.2-0.5 0.4-0.4 0.3-0.7 0.5-0.3 0.2-0.5 0.3-0.4 0.2-0.7 0.3-0.4 0.2-0.8 0.3-0.3 0.1-0.6 0.2-0.2 0-0.4 0.1-0.3 0-0.5 0.1-0.3 0-0.6 0.1-0.2 0-0.4 0-0.3 0-0.7 0.1-0.5 0-1 0-0.2 0-0.5 0-0.3 0-0.6-0.1-0.3 0-0.6 0l-0.4-0.1q-0.1 0-0.1 0-0.1 0-0.2 0 0 0-0.1-0.1 0 0-0.1 0l-0.6-0.1q-0.2-0.1-0.5-0.2-0.3-0.1-0.7-0.3-0.3-0.2-0.7-0.4-0.3-0.2-0.6-0.4-0.3-0.2-0.5-0.3-0.3-0.3-0.6-0.6-0.1 0-0.1-0.1-0.1 0-0.2-0.1 0-0.1-0.1-0.1 0-0.1-0.1-0.1-0.3-0.4-0.6-0.8-0.2-0.2-0.3-0.5-0.1-0.3-0.2-0.7-0.1-0.2-0.1-0.4-0.1-0.2-0.1-0.4-0.1-0.5-0.1-1 0.1-0.2 0.1-0.5 0-0.3 0.1-0.5 0.1-0.4 0.2-0.7 0.2-0.3 0.3-0.6 0.1-0.2 0.3-0.3 0.1-0.2 0.2-0.3 0.1-0.2 0.3-0.3 0.1-0.2 0.2-0.3 0.4-0.3 0.7-0.6 0.4-0.3 0.7-0.5 0.5-0.2 0.9-0.5 0.3-0.1 0.7-0.3 0.3-0.1 0.7-0.2 0.3-0.1 0.6-0.2 0.4-0.1 0.8-0.2 0.2-0.1 0.4-0.1 0.3 0 0.7-0.1 0.3 0 0.6 0 0.5 0 1 0 0.3 0 0.6 0 0.2 0 0.5 0.1 0.3 0 0.6 0 0.3 0.1 0.6 0.2 0.5 0.1 0.9 0.2 0 0 0 0.1"/></svg>