<svg version="1.2" xmlns="http://www.w3.org/2000/svg" viewBox="0 0 24 24" width="24" height="24"><style></style><path fill-rule="evenodd" d="m12.2 18.7c-2.6-0.1-4.8-0.7-6.7-2.1-1.6-1.2-2.6-2.8-2.5-4.8 0.1-1.8 1-3.2 2.3-4.3 1.7-1.3 3.7-2 5.8-2.1 2.2-0.2 4.2 0.2 6.2 1.2 1.4 0.8 2.6 1.9 3.3 3.5 0.8 2.1 0.3 4.3-1.4 5.9-1.5 1.4-3.3 2.2-5.4 2.5-0.6 0.1-1.2 0.1-1.6 0.2m-2.8-3.5c-0.2 0.8-0.2 0.8-0.9 0.8q-1 0-2 0-0.2 0-0.4 0 0 0.1 0 0.1c0.2 0.2 0.5 0.5 0.7 0.6 1.5 1 3.1 1.5 4.8 1.6 2.1 0.1 4-0.4 5.7-1.7 2-1.5 2.9-3.8 2.3-6-0.2-0.6-0.5-1.1-0.7-1.7h-0.1c-1 2.1-2.2 3.9-4.5 4.7q0 0 0.1 0.1h2.4c-0.1 0.4-0.2 0.7-0.7 0.6-0.4 0-0.8 0-1.2 0h-1.1c0-0.1 0-0.2 0.1-0.2q1.4-2.9 2.9-5.8c0-0.1 0.2-0.2 0.3-0.2 0.3 0 0.6 0 0.9 0q0.1 0 0.1-0.1c-0.3-0.3-0.7-0.6-1-0.8q-2.8-1.8-6.1-1.5c-2 0.2-3.8 0.9-5.2 2.4-1.8 1.9-2.1 4.6-0.8 6.7q0.1 0.1 0.3 0.4 0.1-0.3 0.2-0.4 1.7-3.2 3.3-6.4c0.1-0.2 0.2-0.3 0.5-0.3q1.2 0 2.4 0 0.2 0 0.5 0.1c-1.3 3.1-2.9 5.8-6.3 6.9q0 0 0 0.1c0 0 3.5 0 3.5 0zm6.4-7.1c-1.1 2.8-2.4 5.2-5.5 6.1q0.1 0.1 0.1 0.1h3.1c-0.2 0.8-0.2 0.7-0.8 0.7q-1.3 0-2.5 0h-0.5c0.3-0.6 0.5-1.1 0.7-1.6q1.3-2.5 2.6-5c0.1-0.3 0.3-0.3 0.5-0.3 0.8 0 1.5 0 2.4 0z"/></svg>