<svg version="1.2" xmlns="http://www.w3.org/2000/svg" viewBox="0 0 24 24" width="24" height="24"><style></style><path fill-rule="evenodd" d="m21.1 14.8c-0.7 2.2-2.2 3.6-4.5 4.3-1.3 0.4-2.7 0.6-4.6 0.6-1.6 0-3.6-0.1-5.4-0.9-2.3-1-3.6-2.8-4-5.3-0.2-1.5-0.1-2.9 0.3-4.2 0.6-2.2 2.1-3.7 4.6-4.4q1.7-0.6 3.7-0.6h0.8c1.2 0 2.6 0.1 4 0.4 1.9 0.5 3.2 1.3 4.1 2.5 0.7 1 1.2 2.1 1.3 3.5q0.3 2.3-0.3 4.1m-15.8-6.6l-0.1 0.2 0.2 0.1q0.4 0.2 0.8 0.4 0.9 0.4 1.8 0.7c1.4 0.6 2.5 1.4 3.2 2.4q0.2 0.3 0.4 0.6 0.1 0.1 0.2 0.3l0.2 0.4 0.2-0.4 0.1-0.1q0 0 0-0.1 0.3-0.5 0.6-0.9 0.3-0.4 0.6-0.8 0.4-0.4 0.8-0.7 0.5-0.3 0.9-0.5 0.6-0.2 1.1-0.5 0.4-0.1 0.8-0.3 0.5-0.2 0.9-0.4l0.5-0.3 0.2-0.1-0.1-0.2-0.1-0.2q-0.1-0.1-0.2-0.2c-0.7-1-1.8-1.7-3.2-2-0.9-0.3-1.9-0.4-3-0.4q-1 0-2.2 0.2-1.9 0.2-3.2 1.2c-0.6 0.4-1.1 0.9-1.4 1.6zm13.9 6.6c0.3-1.1 0.4-2.3 0.3-3.7v-0.5l-0.1-0.6-0.3 0.2-1.1 0.4q-1.3 0.4-2.6 0.9-1.5 0.6-2.4 1.7-0.5 0.7-0.9 1.4-0.1 0.1-0.1 0.2-0.1-0.1-0.1-0.2c-0.8-1.4-1.8-2.4-3.1-2.9-0.9-0.3-1.8-0.6-2.7-0.9q-0.6-0.2-1.2-0.4l-0.2-0.1-0.1 0.2q0 0.1 0 0.1-0.1 0.1-0.1 0.3v0.8c0 0.7 0 1.4 0.1 2 0.3 2.4 1.7 4 3.8 4.6q1.8 0.5 3.6 0.5 1.8 0 3.6-0.5 2.7-0.8 3.6-3.5z"/></svg>