<svg version="1.2" xmlns="http://www.w3.org/2000/svg" viewBox="0 0 24 24" width="24" height="24"><style></style><path fill-rule="evenodd" d="m21 15.8q0 0 0 0.1 0 0-0.1 0 0 0 0 0 0 0 0 0l-0.3 0.3q-0.1 0.2-0.2 0.3-0.2 0.2-0.4 0.3-0.1 0.2-0.3 0.3-0.1 0.2-0.3 0.4l-0.3 0.2q-0.2 0.2-0.3 0.4-0.2 0.1-0.3 0.2-0.1 0.2-0.3 0.3-0.1 0.2-0.2 0.3-0.3 0.2-0.5 0.4-0.2 0.2-0.4 0.4-0.2 0.3-0.5 0.5l-0.6 0.6q0 0.1-0.1 0.1-0.1 0.1-0.1 0.1h-7.7q-0.1 0-0.2-0.1-0.1-0.1-0.2-0.3-0.2-0.1-0.3-0.3-0.2-0.1-0.4-0.3l-0.2-0.2q-0.2-0.2-0.3-0.3-0.2-0.2-0.3-0.4l-0.7-0.6q-0.1-0.1-0.3-0.3-0.1-0.2-0.3-0.3l-0.6-0.6q-0.3-0.4-0.6-0.7-0.2-0.1-0.3-0.3-0.2-0.2-0.3-0.3-0.1-0.1-0.1-0.3v-7.5q0-0.1 0.1-0.2 0.1-0.1 0.2-0.2 0.1-0.2 0.3-0.3 0.2-0.2 0.4-0.4l0.3-0.3q0.1-0.2 0.3-0.3 0.1-0.2 0.3-0.4 0.1-0.1 0.3-0.2 0.1-0.1 0.3-0.3 0.1-0.2 0.3-0.3 0.2-0.2 0.4-0.4 0.1-0.1 0.2-0.2l0.3-0.3q0.2-0.2 0.3-0.4l0.3-0.2q0.2-0.2 0.4-0.4 0.2-0.2 0.4-0.4 0 0 0 0h7.7c0.1 0 0.2 0 0.2 0.1l0.5 0.5q0.2 0.2 0.4 0.3 0.1 0.2 0.3 0.3 0.1 0.1 0.2 0.3l0.4 0.3q0 0.1 0 0.1 0 0 0.1 0 0 0.1 0 0.1 0.1 0 0.1 0.1 0.2 0.2 0.4 0.4 0.2 0.1 0.3 0.3l0.4 0.4q0.1 0.1 0.2 0.2l0.5 0.5q0.2 0.2 0.4 0.5l0.7 0.6q0.1 0.1 0.1 0.2c0 0 0 7.6 0 7.6zm-1.6-7q0 0 0-0.1-0.2-0.1-0.3-0.2-0.1-0.2-0.2-0.3-0.2-0.2-0.4-0.4-0.3-0.2-0.5-0.5l-0.4-0.4q-0.3-0.3-0.7-0.7l-0.9-0.8q-0.2-0.2-0.3-0.4-0.2-0.2-0.4-0.4-0.1 0-0.1 0h-6.4q0 0 0 0 0 0 0 0 0 0 0 0-0.1 0-0.1 0-0.1 0.1-0.2 0.2-0.3 0.3-0.6 0.6-0.2 0.2-0.3 0.3-0.3 0.3-0.6 0.6-0.2 0.2-0.4 0.4-0.3 0.3-0.5 0.5l-0.5 0.4q-0.1 0.2-0.3 0.3-0.1 0.2-0.2 0.3-0.3 0.3-0.6 0.5 0 0.1 0 0.2v6.2q0 0.1 0 0.1 0.1 0.1 0.2 0.2 0.3 0.3 0.5 0.5 0.3 0.3 0.6 0.6 0.5 0.5 0.9 1 0.3 0.2 0.5 0.5l0.3 0.2q0.2 0.2 0.3 0.3 0.2 0.2 0.3 0.3 0.2 0.2 0.3 0.3l0.3 0.3q0.1 0.1 0.1 0.1h6.3q0.1 0 0.1-0.1l0.6-0.6q0.3-0.3 0.6-0.6 0.2-0.2 0.4-0.3l1.6-1.7q0.1-0.1 0.2-0.2 0.2-0.2 0.4-0.4 0.1-0.1 0.3-0.2c0.1-0.2 0.1-0.2 0.1-0.4zm-7.8 9.4q0 0.1 0 0.1h-1.6q-0.1 0-0.1-0.1v-8.1q0-0.1 0-0.2-0.1 0.2-0.1 0.3-0.1 0.3-0.3 0.7-0.1 0.4-0.3 0.7-0.1 0.4-0.2 0.7-0.2 0.3-0.3 0.7-0.1 0.4-0.3 0.8 0 0 0 0-0.1 0-0.1 0-0.1-0.3-0.2-0.6-0.2-0.4-0.4-0.8l-0.4-0.8q-0.1-0.3-0.2-0.6-0.1 0-0.1 0v5q0 0.1 0 0.1 0 0-0.1 0-0.2-0.2-0.4-0.4-0.1-0.2-0.3-0.4-0.1-0.1-0.3-0.3-0.2-0.1-0.3-0.3 0 0-0.1 0 0-0.1 0-0.2v-5.2q0 0 0-0.1 0 0 0 0 0 0 0 0 0-0.1 0.1-0.1l0.4-0.4q0.2-0.2 0.5-0.5 0.2-0.2 0.4-0.3 0.1-0.1 0.1-0.2 0.1 0 0.1 0.1 0 0 0 0 0.1 0 0.1 0.1 0 0 0 0 0 0.1 0 0.1 0.3 0.5 0.6 1.1 0.1 0.3 0.3 0.7 0 0 0.1 0.1 0-0.1 0.1-0.2 0.2-0.5 0.3-1.1 0.2-0.5 0.4-1 0.2-0.5 0.4-1.1 0.1-0.2 0.2-0.5 0.1-0.2 0.2-0.4 0-0.1 0.1-0.1h1.6c0.1 0 0.1 0 0.1 0.1zm6.9-7.6q0 0.1-0.1 0.1h-1.4q-0.1 0 0-0.1-0.1-0.2 0-0.4 0-0.2-0.2-0.3-0.2-0.2-0.4-0.4-0.3-0.3-0.6-0.6-0.2-0.2-0.3-0.4-0.2-0.2-0.4-0.3-0.2-0.3-0.4-0.5-0.1-0.1-0.2-0.1v8.6q0 0 0 0 0.1 0 0.1 0 0.1-0.1 0.2-0.2l1.2-1.2q0.2-0.2 0.4-0.4 0.1-0.1 0.2-0.2 0.1-0.1 0.2-0.2c0.1-0.1 0.2-0.2 0.1-0.4q0-0.2-0.1-0.2h-1.1c-0.1 0-0.1 0-0.1-0.1v-1.3c0-0.1 0.1-0.1 0.2-0.1h2.6q0.1 0 0.1 0.1v2.5q0 0.1-0.1 0.2-0.2 0.2-0.4 0.4-0.3 0.2-0.5 0.4-0.1 0.2-0.3 0.4-0.1 0.1-0.2 0.2l-0.3 0.3q-0.2 0.2-0.4 0.4-0.2 0.2-0.4 0.4-0.3 0.2-0.5 0.5-0.2 0.1-0.3 0.3-0.1 0.1-0.3 0.3 0 0-0.1 0h-1.8q-0.1 0-0.1-0.1v-12.6c0-0.1 0.1-0.1 0.1-0.1h1.8c0.1 0 0.2 0.1 0.3 0.1q0.1 0.2 0.3 0.4 0.2 0.2 0.4 0.4 0.2 0.2 0.3 0.3l0.3 0.2q0.1 0.2 0.3 0.4 0.1 0.2 0.3 0.3 0.3 0.3 0.5 0.6 0.2 0.1 0.4 0.3 0.2 0.2 0.4 0.5 0.1 0 0.1 0 0 0.1 0 0.1 0.1 0 0.1 0 0 0.1 0.1 0.1 0 0.1 0 0.1v1.3z"/></svg>