<svg version="1.2" xmlns="http://www.w3.org/2000/svg" viewBox="0 0 24 24" width="24" height="24"><style></style><path fill-rule="evenodd" d="m12 15.8c-5.3 0-9.5-1.7-9.5-3.8 0-2.1 4.2-3.9 9.5-3.9 5.2 0 9.5 1.8 9.5 3.9 0 2.1-4.3 3.8-9.5 3.8zm0-7.3c-4.6 0-8.3 1.6-8.3 3.5 0 1.9 3.7 3.4 8.3 3.4 4.6 0 8.3-1.5 8.3-3.4 0-1.9-3.7-3.5-8.3-3.5zm5.9 4.8q0 0 0 0 0 0 0 0zm-0.1 0c-0.2 0.3-0.6 0.3-0.9 0-0.4-0.4-0.5-2.4-0.5-2.4 0 0-0.2 1.7-0.8 2.5-0.5 0.7-0.7 0-0.9-0.6-0.1-0.5-0.2-1.7-0.2-1.7-0.5 3-1.7 2.6-1.8 2.4 0.7-0.3 1.1-1.5 1.2-2 0.1-0.5 0.2-1.5 0.4-1.6 0.3-0.2 0.7-0.1 0.9 0.5 0.1 0.5 0.2 2.1 0.2 2.1l0.5-1.5c0.5-1.4 1.2-1.4 1.3-1.1 0 0.2 0.1 2 0.2 2.6 0.1 0.5 0.4 0.8 0.4 0.8zm-8 0.1c-0.3-0.4 0-2.3 0-2.3 0 0-0.6 1.6-1.3 2.4-0.6 0.7-0.7 0-0.8-0.6 0-0.5 0.1-1.7 0.1-1.7-1.1 3-2.2 2.6-2.3 2.4 0.8-0.3 1.4-1.4 1.6-1.9 0.2-0.5 0.5-1.5 0.8-1.7 0.3-0.1 0.7-0.1 0.7 0.5 0.1 0.6-0.2 2.1-0.2 2.1l0.9-1.5c0.7-1.3 1.4-1.3 1.4-1-0.1 0.2-0.2 1.9-0.3 2.5 0 0.6 0.4 0.8 0.4 0.8-0.3 0.3-0.7 0.3-1 0zm1.3-0.7c0-1.8 0.2-2.3 0.5-2.5 0.3-0.3 0.5-0.3 0.7-0.3-0.2 0.6-0.3 2.4-0.3 2.8 0.1-0.2 0.5-1.4 0.9-2.1 0.4-0.7 0.8-0.7 0.8-0.7-0.3 1.4-1.3 3.1-1.4 3.3-0.2 0.3-1.2 1.4-1.2-0.5z"/></svg>