<svg version="1.2" xmlns="http://www.w3.org/2000/svg" viewBox="0 0 24 24" width="24" height="24"><style></style><path fill-rule="evenodd" d="m21 11.9q0 0.8-0.1 1.5c0 0.4-0.2 0.5-0.5 0.6q-0.3 0-0.6 0-0.1 0-0.1 0.2c-0.7 2.3-2.3 3.9-4.5 4.8q-1.8 0.8-3.7 0.6c-3.3-0.2-6.1-2.3-7.1-5.2q0-0.1-0.1-0.2c0-0.2-0.1-0.2-0.2-0.2q-0.1 0-0.2 0 0 0-0.1-0.1-0.1 0-0.1 0-0.1 0-0.2 0-0.1 0-0.1-0.1-0.1 0-0.2-0.1 0 0-0.1-0.1 0-0.1 0-0.2c-0.1-0.9-0.1-1.7-0.1-2.6q0.1-0.2 0.1-0.4 0.1-0.3 0.5-0.4 0.3-0.1 0.6-0.1 0.1 0 0.1-0.1c1.1-3 3.2-4.7 6.2-5.3 2.2-0.5 4.3 0 6.2 1.3q2.2 1.5 3 4 0 0.1 0.2 0.2 0.3 0 0.6 0 0.5 0.1 0.5 0.6v1.3m-5 0.9q0 0 0 0 0 0 0 0zm0 0q-0.4-0.9-0.9-1.8c0 0 0-0.1-0.1-0.1h-0.5q-0.2 0-0.2 0.1-0.4 0.9-0.8 1.7 0 0.1 0 0.1 0.2 0 0.3 0 0.3 0.1 0.4-0.2 0-0.1 0.2-0.1 0.3 0 0.6 0c0.2 0 0.3 0 0.4 0.3 0 0 0.1 0 0.1 0q0.3 0 0.5 0 0 0 0 0zm-3.1-0.4h-1.4v0.4h1.5q0.3 0 0.4-0.2 0.1-0.3 0-0.5c0-0.3-0.2-0.4-0.4-0.4h-0.9v-0.3h1.2v-0.5h-1.3q-0.3 0-0.5 0.4-0.2 0.3 0.1 0.6 0.1 0.2 0.3 0.2h1c0 0 0 0.3 0 0.3zm-1.8-1.5q0 0 0 0zm-1.4 0c-0.3 0-0.5 0.4-0.5 0.8 0.1 0.3 0.3 0.4 0.6 0.4h0.9v0.3h-1.4v0.4q0 0 0 0h1.6q0 0 0.1 0c0.2-0.2 0.3-0.4 0.3-0.7 0-0.2-0.3-0.4-0.5-0.4q-0.5 0-1 0v-0.3h1.3v-0.5q-0.7 0-1.4 0zm-4.1 0v1.9h0.6v-1.1c0 0 0 0 0 0.1q0.3 0.5 0.6 1c0 0 0.1 0 0.1 0h0.8q0 0 0 0v-1.8c0 0 0-0.1 0-0.1h-0.5v1.3c0 0 0 0 0-0.1q-0.3-0.5-0.6-1.1c0 0-0.1-0.1-0.1-0.1h-0.9zm12.3 1.3h-0.1q0 0 0 0 0-0.1 0-0.1 0 0 0 0 0 0 0 0-0.3-0.6-0.5-1.1-0.1-0.1-0.2-0.1h-0.8q-0.1 0-0.1 0.1v1.8h0.6v-1.2q0.3 0.5 0.5 0.9c0.1 0.3 0.3 0.4 0.6 0.3q0.2 0 0.5 0v-1.9h-0.5c0 0 0 1.3 0 1.3zm-11.4-2.6c3.7-0.1 7.4-0.2 11.1 0.1-0.9-1.9-3.1-3.6-5.9-3.5-2.6 0.2-4.5 1.8-5.2 3.4zm-0.1 4.7c0.8 1.8 3.1 3.8 6.3 3.5q2-0.2 3.5-1.6 0.9-0.8 1.4-1.9c-3.8 0.3-7.4 0.2-11.2 0zm2.4-3.4h-0.6v2h0.6zm5.7 1q0.1-0.3 0.3-0.5 0.1 0.2 0.2 0.5z"/></svg>