<svg version="1.2" xmlns="http://www.w3.org/2000/svg" viewBox="0 0 24 24" width="24" height="24"><style></style><path fill-rule="evenodd" d="m19.5 18.8v0.1c0 0-0.1 0-0.1 0q-0.1 0.2-0.3 0.3-0.3 0.2-0.5 0.5 0 0.1-0.1 0.1-0.5 0-0.9 0c-1 0-1.9-0.1-2.9 0.1v-0.6c0-0.3 0-0.5 0.2-0.8 0.1-0.2 0.2-0.3 0.4-0.4q0.2 0 0.3-0.1l0.5-0.1c0.2 0 0.2-0.1 0.2-0.2q0-0.3-0.3-0.3-0.3 0-0.6-0.2-0.1 0-0.2-0.1-0.7-0.5-1.4-1.1-0.3-0.2-0.6-0.3c-0.1-0.1-0.2-0.1-0.3 0.1q-0.1 0-0.1 0.1-0.8 1-1.8 1.9-0.1 0.2-0.2 0.3c-0.1 0.1-0.2 0.3-0.2 0.4q0 0.4 0.1 0.9v0.4q-0.1 0-0.2 0-1 0-2-0.1-1.1 0-2.2 0.1-0.1 0-0.1-0.1 0-0.5 0.1-1 0-0.4 0.4-0.6 0.3-0.1 0.7-0.2 0.4-0.1 0.9-0.2c0.3 0 0.4-0.1 0.3-0.4q0-0.4 0-0.8c0-0.3 0.1-0.7 0.3-1q0.4-0.7 0.8-1.4 0.3-0.6 0.7-1.2 0.1-0.1-0.1-0.2-0.1-0.1-0.3-0.3c-0.3-0.3-0.7-0.4-1.2-0.4q-1.3 0-2.6 0.1-0.1 0-0.2-0.1 0 0-0.1-0.1 0 0 0 0-0.1 0-0.2-0.1 0 0-0.1 0-0.2 0.1-0.5 0.2-0.1 0-0.3 0.1-0.1-0.2-0.2-0.4-0.1-0.3 0-0.6c0.1-0.4 0.3-0.6 0.7-0.8q0.1 0 0.2 0c0.5-0.2 1-0.3 1.5-0.4q0.2 0 0.4-0.1 0 0 0 0-0.2-0.3-0.5-0.5 0 0-0.1-0.1-0.1 0-0.1 0-0.1 0-0.2 0-0.1-0.1-0.1 0c-0.2 0-0.3-0.1-0.4-0.3-0.1-0.2-0.2-0.3-0.5-0.3q-0.2 0-0.4 0.1-0.1-0.3-0.1-0.5-0.2-0.3 0.1-0.4 0-0.1 0.1-0.1 0.5-0.4 1.1-0.4 0.9 0 1.7 0.4 1.1 0.5 2.2 1.1 0.1 0 0.2 0.1 0.2-0.4 0.4-0.7 0 0 0-0.1 0.1 0 0-0.1c-0.1 0-0.2-0.1-0.3 0l-0.3 0.1c-0.2 0.1-0.3 0.1-0.4-0.1q-0.3-0.3-0.6-0.7 0.1-0.1 0.2-0.1 0.2-0.1 0.4-0.1 0.2 0 0.5 0.1 0.2 0 0.4-0.2 0.1-0.1 0.1-0.3-0.1-0.1-0.3-0.2c-0.4-0.1-0.8-0.1-1 0.3q0 0 0 0 0 0-0.1 0c-0.1-0.1-0.3-0.1-0.4-0.3q-0.3-0.3-0.5-0.6c-0.1-0.2-0.1-0.2 0.1-0.3q0.3-0.3 0.7-0.4 0.3-0.1 0.5-0.3 0.2-0.4 0.7-0.5 0.4-0.1 0.8-0.2 0.2 0 0.5-0.1h0.1q0 0 0 0.1 1.4 0.4 2.7 0.8 0.1 0.1 0.1 0.1 0.2 0.4 0.5 0.8 0.3 0.2 0.5 0.4 0.1 0 0.1 0.1 0-0.1 0-0.1c0.3-0.7 1-1 1.6-0.9 0.4 0.1 0.7 0.3 0.9 0.6q0.1 0 0.1 0 0.3 1.3 0.6 2.5 0 0.1 0 0.2c0.1 0.1 0 0.2-0.1 0.1q-0.1 0-0.1 0-0.3-0.3-0.6-0.5-0.5-0.3-0.6-0.8-0.2-0.4-0.2-0.7 0-0.2-0.1-0.4 0-0.1-0.2-0.1c-0.2 0-0.3 0.1-0.4 0.2q-0.2 0.4-0.2 0.8 0.1 0.4 0.3 0.9 0.4 0.9 0.8 1.8c0.2 0.5 0.5 1 0.6 1.5q0.3 0.8-0.3 1.5-0.2 0.4-0.6 0.6-0.2 0.1-0.3 0.3-0.1 0.2 0 0.3 0.1 0.1 0.2 0.2c0.4 0.6 0.8 1.2 1.2 1.8q0.4 1 0.8 1.9 0.2 0.4 0.3 0.7zm-3.3-9.7v0.2q0 0.3-0.1 0.5 0 0.2-0.2 0.2-0.5 0.2-0.9 0.4-0.2 0.1-0.4 0.2-0.2 0.1-0.2 0.3 0.1 0.2 0.3 0.4 0 0.1 0.1 0.2 0.3 0.4 0.7 0.8 0.1 0.2 0.3 0.3 0.2 0.2 0.5 0.1 0.4-0.2 0.8-0.5 0.3-0.2 0.3-0.5v-0.2q0 0-0.1-0.1-0.1-0.3-0.3-0.7c-0.3-0.5-0.6-1-0.7-1.5q-0.1-0.1-0.1-0.1z"/></svg>