<svg version="1.2" xmlns="http://www.w3.org/2000/svg" viewBox="0 0 24 24" width="24" height="24"><style></style><path fill-rule="evenodd" d="m12.2 20.5h-0.2c0 0-0.1-0.1-0.2-0.1-0.5-0.3-1.1-0.6-1.7-1-1-0.7-2-1.5-2.8-2.6-0.5-0.8-0.9-1.7-1-2.7q-0.2-1.3-0.2-2.7l-0.3-2.9q-0.1-1.7-0.2-3.4 0-0.2-0.1-0.5v-0.2c1.7-0.3 3.3-0.7 5-0.8q1.9-0.1 3.8 0c1.1 0.2 2.2 0.4 3.4 0.6q0.4 0.1 0.9 0.2 0 0.1 0 0.2-0.1 1.3-0.2 2.5l-0.3 3.3q-0.1 1.7-0.2 3.4c-0.1 0.6-0.2 1.1-0.4 1.7-0.4 1-1 1.8-1.8 2.6-1 0.8-2 1.6-3.2 2.2q-0.2 0.1-0.3 0.2m2.3-8h3c0.1 0 0.1 0 0.1-0.1q0.1-0.5 0.1-1 0.1-0.3 0.1-0.7h-3.3c0 0 0 1.8 0 1.8zm-8 1.8q0.2 0.9 0.6 1.7 0.1 0.2 0.2 0.2h4.6v-0.8c0 0-0.1 0-0.2 0q-1-0.1-1.7-1 0 0 0 0 0 0 0 0-0.1 0-0.1-0.1 0 0 0 0zm5.6-5.4c0.8 0.1 1.7-0.1 2.5 0.1h3.3q0-1 0.1-1.9h-5.9v1.8zm-6.3-2.6q6.2-1.7 12.3 0 0-0.1 0-0.1 0-0.7 0.1-1.4c0-0.1 0-0.1-0.1-0.2q-0.8-0.2-1.7-0.3-1.8-0.4-3.7-0.5-1.8 0-3.5 0.2-1.7 0.2-3.4 0.6-0.1 0.1-0.1 0.2 0 0.2 0.1 0.4 0 0.5 0 1.1zm3.9 2.9v3.7q0 0.6 0.3 1.1c0.5 0.9 1.5 1.3 2.5 1.1 0.9-0.2 1.6-1.1 1.6-2.1v-3.8c0 0-4.3 0-4.4 0zm5 5.3q0 0-0.1 0 0.1 0 0.1 0zm-0.4 0.3q-0.2 0.2-0.2 0.4c0.2 0 0.5 0 0.6-0.3q0.2-0.2 0.5-0.3c-0.1 0.2-0.2 0.3-0.3 0.5 0.2 0 0.3 0 0.5-0.1q0.2-0.1 0.5 0c-0.1 0.1-0.3 0-0.4 0.2 0.4 0.2 0.6 0.4 0.6 0.8q-0.1-0.1-0.2-0.1c-0.2-0.3-0.5-0.5-0.9-0.5q-1 0.2-1.9 0.6-0.1 0-0.1 0.1c0 0.2 0 0.2-0.2 0.1-0.1 0-0.2 0.1-0.3-0.1-0.1-0.1 0-0.2 0.1-0.2q0-0.3 0.2-0.2c0.1 0 0.2 0 0.2-0.1 0-0.1 0-0.3 0.1-0.4q-0.5 0.1-1 0.2v4.8c0 0 0-0.1 0-0.1 1.4-0.7 2.6-1.5 3.7-2.6 0.6-0.7 1.1-1.5 1.4-2.3 0.3-0.6 0.3-1.2 0.3-1.8q0-0.3 0.1-0.6h-3.2v0.2c0 0.7-0.3 1.3-0.9 1.8-0.1 0.2-0.2 0.4-0.1 0.7 0.1-0.1 0.2-0.1 0.3-0.3q0.1-0.2 0.3-0.4c0.2-0.2 0.4-0.3 0.6-0.3q-0.2 0.2-0.3 0.3zm-5.6-3.8c0.2 0.1 0.3 0 0.4-0.1 0.1-0.1 0.2-0.1 0.3-0.2q0.1-0.1 0.1-0.2 0-0.2 0-0.5c0-0.4-0.1-0.5-0.5-0.4q0 0 0 0c-0.5 0.1-0.9 0.3-1.4 0.6q0 0 0 0.1-0.1 0.3-0.4 0.2 0 0-0.1 0c-0.1 0-0.2-0.1-0.2-0.1 0-0.1 0-0.2 0-0.2q0-0.1 0.1-0.2 0.1-0.2 0.2-0.2c0.2 0.1 0.2 0.1 0.2-0.1 0.1-0.3 0.2-0.7 0.5-0.9 0.1-0.1 0.2-0.2 0.4-0.2-0.3 0.3-0.5 0.6-0.5 1.1q0.1-0.1 0.2-0.1c0.1-0.1 0.2-0.2 0.3-0.3q0.1-0.3 0.4-0.6 0.1-0.1 0.3-0.1-0.4 0.3-0.4 0.8c0.2-0.1 0.3-0.1 0.4-0.3 0.1-0.1 0.2-0.2 0.3-0.3 0.1-0.1 0.2-0.1 0.3-0.1q-0.2 0.3-0.4 0.5 0.2 0 0.3 0.1 0-0.2 0-0.3h2.3v-3.2c-2 0-4 0.3-6 0.8q0.3 3 0.5 6h3.2v-1.1c0 0-0.1-0.1-0.1-0.1q-0.3-0.2-0.6-0.1-0.6 0.1-1.1 0.5c-0.1 0.1-0.1 0.2-0.2 0.3 0 0.1-0.1 0.1-0.1 0.1-0.2 0-0.3 0-0.4 0q0-0.1 0-0.1c0-0.1 0.1-0.3 0.2-0.4q0.1 0 0.2 0.1 0-0.4 0.1-0.7c0-0.2 0.1-0.4 0.4-0.5-0.2 0.3-0.2 0.6-0.2 0.9 0.1-0.1 0.2-0.2 0.3-0.3q0.1-0.3 0.3-0.5c0-0.1 0.1-0.1 0.2-0.2q0 0 0 0.1-0.2 0.2-0.2 0.5c0.1 0.1 0.2 0 0.2-0.2 0.1-0.1 0.2-0.2 0.3-0.3q0 0 0.2-0.1-0.2 0.3-0.3 0.5zm3.1 9.1v-2.1h-3.1c0.9 0.9 2 1.5 3.1 2.1zm-3.1-12.7q0.1 0 0.2-0.1 0.1 0 0.2-0.1c0.1-0.1 0.2-0.3 0.3-0.5q0.2-0.1 0.4-0.1c-0.1 0.2-0.3 0.4-0.3 0.6 0.1 0 0.3 0.1 0.4-0.1q0.2-0.2 0.6-0.2-0.1 0.1-0.1 0.1-0.1 0.2-0.2 0.3 0 0 0.1 0.1 0.1 0.1 0.3 0.3c0.1 0.1 0.1 0.2 0.1 0.3q0 0 0 0-0.1 0-0.1 0c-0.4-0.4-0.9-0.4-1.5-0.3q-0.8 0.2-1.5 0.6-0.1 0.1-0.1 0.2-0.1 0.3-0.4 0.2 0 0-0.1 0-0.2 0-0.3-0.1 0-0.1 0.1-0.3 0 0 0.1-0.1 0-0.3 0.3-0.2c0.1 0.1 0.1 0 0.2-0.1q0-0.6 0.3-1 0.3-0.4 0.6-0.4c-0.3 0.4-0.6 0.8-0.6 1.3q0.3-0.1 0.5-0.2 0-0.1 0-0.1c0.2-0.3 0.3-0.5 0.4-0.7q0.2-0.3 0.5-0.3h0.1c-0.3 0.2-0.5 0.5-0.5 0.9zm5.2 9.3c0.2-0.1 0.3-0.1 0.4-0.3 0.1-0.1 0.3-0.2 0.5-0.2q-0.2 0.2-0.3 0.3 0 0.1 0 0.1c0.1 0 0.2 0 0.3-0.1 0.2 0 0.3-0.1 0.5 0q-0.2 0-0.3 0.1c0.2 0.2 0.4 0.3 0.4 0.6q0 0-0.1 0-0.5-0.5-1.2-0.3-0.5 0.2-1 0.4c-0.1 0-0.1 0.1-0.2 0.1q0 0.2-0.3 0.1c-0.1-0.1-0.1-0.2-0.1-0.2q0-0.1 0.1-0.2c0-0.1 0.1-0.1 0.2-0.1 0.1 0.1 0.1 0 0.1-0.1q0.1-0.3 0.3-0.5 0.1-0.2 0.4-0.2c-0.2 0.2-0.4 0.3-0.4 0.6 0.2 0 0.3 0 0.3-0.2 0.2-0.2 0.4-0.5 0.7-0.5q0.1 0 0.1 0c-0.2 0.1-0.4 0.3-0.4 0.5zm-0.8 1l-0.2 0.5q0.1 0 0.1 0 0.1-0.1 0.1-0.1c0.1-0.3 0.2-0.4 0.4-0.4q0 0.1-0.1 0.2 0 0.1-0.1 0.1 0.1 0.1 0.1 0.1 0.1-0.1 0.2-0.2c0.1-0.1 0.2-0.2 0.4-0.2q-0.1 0.1-0.2 0.3 0 0 0 0 0.2-0.1 0.4-0.1 0 0 0 0 0 0-0.1 0.1c0.1 0.1 0.3 0.2 0.3 0.4-0.5-0.4-1-0.1-1.5 0.1q-0.1 0-0.1 0.1c0 0.1-0.2 0.1-0.3 0 0 0 0 0 0-0.1 0 0 0-0.2 0.1-0.2 0.1 0 0.1 0 0.2-0.1q0-0.2 0.1-0.3c0-0.1 0.1-0.1 0.1-0.2q0 0 0.1 0zm-2.4-3.9q0.1 0 0.1 0 0 0 0 0zm-0.3-0.4q0-0.2 0-0.4c0-0.2 0-0.2 0.1-0.3q0.1 0 0.2 0-0.1-0.2-0.2-0.4-0.1-0.2-0.2 0-0.1 0.2-0.2 0.4c0 0 0 0.1 0 0.1-0.1 0.1-0.1 0.1-0.2 0.1q0 0 0-0.1 0.1-0.5 0.4-0.8c0 0 0.1 0 0.2 0q0.1 0 0.2 0.1 0.1 0 0.1 0c0-0.3 0.2-0.5 0.3-0.6 0.1-0.1 0.1-0.1 0.1-0.2h-0.2l-0.1 0.1c0-0.1-0.3-0.2-0.1-0.3l0.2-0.2c0.1 0 0.2-0.1 0.1-0.2q0.2-0.1 0.3-0.2 0.1 0.1 0.2 0.3c0-0.2 0-0.2 0.2-0.2 0.1 0 0.2 0 0.3 0v0.1q0.1 0 0.2 0-0.1 0.1-0.1 0.2 0.1 0.1 0.3 0.1-0.1 0.1-0.2 0.2 0.1 0 0.3 0.1-0.2 0.1-0.3 0.3 0.1 0 0.1 0c0 0.1 0.1 0.1 0 0.1q-0.1 0.1-0.2 0.2-0.1 0.1-0.2 0.1c0 0.1 0 0.2 0.1 0.2q0.3 0.1 0.6 0.1 0.2 0.1 0.4 0.2 0.1 0 0.2 0v-0.2q0 0-0.1 0c-0.2-0.2-0.1-0.4-0.1-0.6q-0.1 0 0 0c0.1-0.1 0.2-0.3 0.4-0.3 0.1 0 0.2-0.1 0.2-0.2 0 0 0.1-0.1 0.1-0.1 0 0.2 0 0.3-0.1 0.4 0 0.1 0.1 0.2 0.1 0.3 0.1 0.1 0 0.2 0 0.3 0 0.1 0.2 0.2 0 0.4 0 0.3-0.1 0.3-0.3 0.2q-0.1 0-0.2 0 0.1 0.3-0.1 0.6c-0.1 0.1-0.1 0.2 0 0.3 0.1 0.2 0.1 0.3-0.1 0.4-0.1 0.1-0.1 0.2-0.2 0.3-0.1 0.1-0.3 0.1-0.3 0.3 0 0-0.1 0.1-0.1 0.1q-0.1-0.3 0.1-0.4 0.2-0.1 0.3-0.4c0.1 0 0-0.1 0-0.2q-0.2-0.1-0.3-0.1-0.1 0-0.1 0c0.1 0.2-0.1 0.3-0.2 0.4-0.1 0-0.1 0-0.2 0.1q-0.1 0-0.2 0.1-0.1 0-0.1 0.1c0 0.1-0.1 0.1-0.2 0.1q-0.1-0.3 0.2-0.4 0.2-0.1 0.4-0.2 0.2-0.2 0-0.3 0 0 0-0.1c-0.1-0.2-0.3-0.2-0.5-0.3-0.3-0.1-0.6-0.1-0.9-0.1-0.3-0.1-0.4 0-0.3 0.3 0.1 0.1 0.1 0.2 0.2 0.3 0 0 0 0.1 0 0.2-0.2-0.1-0.3-0.3-0.3-0.4zm1.7-3.7c0-0.1 0.1-0.1 0.2-0.1 0.1 0 0.1 0.1 0.2 0.2q0 0 0 0-0.1 0-0.1 0-0.2-0.1-0.2 0-0.1 0.1 0 0.2c0 0 0 0.1 0.1 0.1q0 0 0.1-0.1-0.1 0-0.1-0.1 0.1 0 0.2 0v0.3q-0.1 0-0.2 0-0.2 0-0.2-0.1-0.1-0.2 0-0.4 0 0 0 0 0 0 0 0zm1.1 0.3c-0.1 0 0.1 0.2-0.1 0.2v-0.6h0.2c0.1 0 0.2 0.1 0.2 0.2q0 0.2-0.1 0.4c-0.1 0-0.1 0-0.1-0.1q0-0.2-0.1-0.1zm0-0.1q0.1-0.1 0.1-0.1c0 0 0-0.1 0-0.1q0 0 0 0 0 0 0 0-0.1 0-0.1 0 0 0 0 0zm-0.2 0.3c0 0-0.1 0-0.1-0.1q-0.1-0.1-0.2 0-0.1 0.1-0.1 0.1 0 0-0.1 0 0.1-0.3 0.2-0.6c0 0 0.1 0 0.1 0q0 0 0.1 0.1 0 0.2 0.1 0.5zm-2.7-0.4c0 0-0.1-0.1-0.1-0.1q0 0-0.1 0 0 0 0 0 0 0 0 0 0 0 0 0c0 0-0.1 0-0.1 0q0.1 0.1 0.1 0.1 0 0 0.1 0c0.1 0.1 0.1 0.1 0.1 0.2q-0.1 0.2-0.2 0.2-0.2 0-0.2-0.2 0.1 0 0.1 0 0.1 0.1 0.2 0.1v-0.1q0 0 0 0-0.1 0-0.1 0 0-0.1 0-0.1-0.1 0-0.1 0-0.1-0.1-0.1-0.2c0.1-0.1 0.2-0.1 0.3-0.1q0.1 0 0.1 0.2zm0.6-0.2v0.3c0 0.1 0 0.2 0.1 0.2 0.1 0 0.1-0.1 0.1-0.2q0-0.1 0-0.2 0-0.1 0.1-0.1 0 0 0 0v0.4q0 0.2-0.2 0.2c-0.1 0-0.2 0-0.2-0.1q0-0.2 0-0.5 0 0 0.1 0 0 0 0 0zm1.2 0.1q0 0 0 0c0 0-0.1 0-0.1 0q0 0.2-0.1 0.5h-0.1v-0.5c0 0-0.2 0-0.1-0.1h0.3q0.1 0 0.1 0.1zm1.6 0h-0.1q0 0-0.1-0.1 0.1 0 0.1 0h0.3q0 0 0 0 0 0.1-0.1 0.2v0.4c-0.2 0-0.1-0.1-0.1-0.2q0-0.1 0-0.3zm-2.3 0.5v-0.5c0 0-0.1 0-0.1 0q0 0 0-0.1 0 0 0 0h0.3q0 0 0.1 0-0.1 0.1-0.1 0.1 0 0-0.1 0 0 0.3 0 0.5h-0.1zm-0.8-0.5q0 0.2 0 0.5h-0.1v-0.5c0 0 0 0-0.1 0q0 0 0-0.1 0 0 0 0h0.3q0 0 0.1 0-0.1 0-0.1 0.1 0 0-0.1 0zm0.6-4.5v-0.2h1.1c0.1 0 0.1-0.1 0.2-0.1-0.1 0-0.1-0.1-0.2-0.1h-0.8q-0.3 0-0.3-0.3 0-0.4 0.3-0.4h1.3v0.3h-1.1c-0.1 0-0.2 0-0.2 0.1 0 0 0.1 0.1 0.2 0.1h0.8c0.1 0 0.2 0 0.3 0.1 0 0.2 0.1 0.3-0.1 0.5q0 0 0 0 0 0 0 0-0.1 0-0.1 0 0 0 0 0c0 0-1.4 0-1.4 0zm-1.8-1q0.2 0 0.4 0 0.4 0 0.8-0.1c0.3 0 0.4 0.2 0.3 0.5q0 0.1 0 0.2 0.1 0.2 0.1 0.5-0.1 0-0.3 0 0-0.1 0-0.1c0-0.3-0.1-0.4-0.4-0.3q-0.2 0-0.3 0-0.1 0-0.3 0v0.4h-0.3v-1.1zm0.3 0.3q0 0 0 0zm0 0.1q0.4 0 0.8 0c0.1 0 0.1-0.1 0.1-0.1 0 0-0.1-0.1-0.1-0.1q-0.4 0-0.8 0zm-2.1 0.4v-0.2c0-0.2 0-0.3 0.2-0.3l0.9-0.2c0.4 0 0.5 0.1 0.5 0.4v0.4q0 0.3-0.2 0.3-0.5 0.1-1.1 0.2c-0.2 0-0.3-0.1-0.3-0.3 0 0 0-0.3 0-0.3zm1.3-0.1v-0.1c0-0.2 0-0.2-0.3-0.2l-0.3 0.1c-0.5 0-0.4 0-0.4 0.5q0 0.2 0.1 0.1l0.6-0.1c0.3 0 0.3 0 0.3-0.3zm7.8 0.4q0 0.1 0 0.2 0.4 0.1 0.8 0.2 0.2 0 0.2 0.3-0.6-0.2-1.3-0.3 0-0.6 0.1-1.2 0.6 0.2 1.3 0.3 0 0.1 0 0.3-0.5-0.1-1-0.2v0.2q0.5 0.1 1 0.2 0 0.1 0 0.2l-1.1-0.2zm-10.8-0.4q0.6-0.1 1.2-0.2 0.3-0.1 0.3 0.1 0.1 0.4-0.2 0.5-0.4 0.1-0.8 0.2c-0.1 0-0.2 0.1-0.1 0.2v0.3q-0.1 0-0.3 0.1l-0.1-1.2zm0.3 0.4q0.4-0.1 0.8-0.2c0 0 0.1-0.1 0.1-0.1 0 0-0.1-0.1-0.1-0.1q-0.4 0.1-0.7 0.2c-0.1 0-0.1 0.1-0.1 0.2zm8.3-0.2q0 0.2 0 0.3-0.5 0-0.9-0.1-0.2 0-0.3 0-0.3 0-0.3-0.3 0-0.3 0-0.6 0.1-0.2 0.3-0.2 0.6 0 1.2 0.1v0.2q-0.5 0-0.9-0.1c-0.2 0-0.3 0.1-0.3 0.3 0 0.3 0 0.3 0.4 0.4h0.8zm1.5-0.2q0 0 0 0 0 0 0 0zm0-0.4q0.1 0 0.3 0-0.1 0.6-0.1 1.2-0.1 0-0.3-0.1 0-0.2 0.1-0.4-0.5-0.1-1-0.2 0 0.2 0 0.5-0.1 0-0.3-0.1 0.1-0.5 0.1-1.1 0.1 0 0.3 0 0 0.2 0 0.4 0.4 0.1 0.9 0.2 0-0.2 0-0.4z"/></svg>