<svg version="1.2" xmlns="http://www.w3.org/2000/svg" viewBox="0 0 24 24" width="24" height="24"><style></style><path fill-rule="evenodd" d="m3.6 15.2h-1.4q-0.1 0-0.1-0.1v-4q0-0.6 0.2-1.1 0.4-0.7 1.1-1 0.7-0.3 1.4-0.1 0.6 0.1 1.1 0.5c0.2 0.1 0.4 0.4 0.5 0.6 0.2 0.5 0.2 0.9 0.2 1.3q-0.2 0.8-0.7 1.3-0.4 0.3-1 0.4-0.4 0.2-0.9 0.1h-0.1v-1.4h0.2q0.2 0 0.5-0.1c0.3-0.1 0.4-0.4 0.4-0.7q0-0.1 0-0.2-0.1-0.1-0.1-0.2-0.1 0-0.2-0.1-0.1-0.1-0.2-0.1c-0.3-0.1-0.7 0-0.8 0.6q0 0.2 0 0.4zm11.4-3.1v0.1c-0.2-0.1-0.3-0.1-0.5-0.1-0.4 0-0.7 0.1-0.8 0.5q-0.1 0.1-0.1 0.2 0 0.1 0 0.2 0 0.1 0 0.2 0.1 0.1 0.1 0.2 0.2 0.3 0.5 0.4 0.5 0.1 0.8-0.2 0.2-0.2 0.2-0.4 0-0.3 0-0.6v-3.6c0 0 0-0.1 0-0.1h1.3q0.1 0 0.1 0.1v3.9q0 0.6-0.2 1.2c-0.2 0.4-0.6 0.7-1 0.9q-0.4 0.2-0.9 0.3-0.4 0-0.9-0.2-0.7-0.2-1.1-0.9-0.3-0.6-0.3-1.4 0.1-0.6 0.3-1.1 0.4-0.6 1.1-0.8 0.5-0.2 1-0.2 0.2 0 0.4 0.1 0 0 0 0v1.4zm4.4 1.4q-0.3-0.4-0.6-0.8l1.2-0.8c-0.3-0.2-0.9-0.2-1.2 0.2-0.3 0.4-0.3 0.9-0.1 1.3 0.3 0.5 0.8 0.6 1.3 0.4q0.5-0.2 0.8-0.7v-0.1q0 0 0.1 0 0.4 0.2 0.8 0.4l0.1 0.1q0.1 0 0 0.1-0.1 0.2-0.2 0.4c-0.3 0.5-0.8 0.8-1.3 1.1q-0.3 0.1-0.6 0.1-0.5 0.1-1-0.1-0.3-0.1-0.6-0.4-0.2-0.1-0.4-0.3-0.1-0.2-0.3-0.5-0.1-0.2-0.1-0.5-0.1-0.2-0.1-0.5 0-0.7 0.4-1.3 0.4-0.6 1.2-0.9 0.2 0 0.4 0 0.6-0.1 1.1 0.1 0.5 0.2 0.9 0.7 0.1 0.2 0.3 0.5 0 0 0 0.1-0.2 0.1-0.4 0.2-0.8 0.5-1.5 1-0.1 0.1-0.2 0.2zm-12.4-2.8h1.2v0.6q0.1 0 0.1-0.1c0.2-0.2 0.4-0.3 0.6-0.4q0.4-0.1 0.7-0.1h0.2v1.3q-0.2 0-0.4 0-0.2 0.1-0.5 0.2-0.5 0.2-0.6 0.7 0 0.4 0 0.7v1.5h-1.3zm3.2 0h1.4v4.4h-1.4q0 0 0-0.1zm0.7-2c0.4 0 0.8 0.4 0.8 0.8 0 0.5-0.4 0.9-0.8 0.8-0.6 0-0.8-0.4-0.8-0.9q0-0.1 0.1-0.3 0.1-0.1 0.2-0.2 0.1-0.1 0.2-0.2 0.2 0 0.3 0z"/></svg>