<svg version="1.2" xmlns="http://www.w3.org/2000/svg" viewBox="0 0 24 24" width="24" height="24"><style></style><path fill-rule="evenodd" d="m12 3.6c0.6 0 1.2 0.1 1.7 0.2q2.3 0.6 4.4 1.7c0.8 0.3 1.3 0.9 1.5 1.7 0.1 0.5 0 1-0.1 1.4-0.1 0.6-0.3 1.1-0.4 1.7-0.4 1.4-1 2.7-1.6 4-0.2 0.5-0.5 0.9-0.8 1.4q-0.7 1.1-1.4 2.2-0.8 1-1.7 1.9-0.4 0.2-0.8 0.5-0.8 0.3-1.5 0c-0.6-0.3-1-0.7-1.5-1.1-0.8-0.9-1.5-1.8-2.1-2.8-0.3-0.6-0.7-1.3-1.1-1.9-0.5-0.8-0.8-1.7-1.1-2.6q-0.5-1.5-1-3.1c-0.1-0.5-0.2-1-0.1-1.5q0.3-1.2 1.4-1.8c0.5-0.2 1-0.4 1.6-0.7q1.6-0.7 3.4-1.1 0.6-0.1 1.2-0.1m-0.2 0.2c-0.2 0.1-0.6 0.1-1 0.2-0.9 0.2-1.8 0.5-2.7 0.8q-1.1 0.4-2.2 0.9c-0.5 0.3-1 0.8-1.1 1.5-0.2 0.4-0.1 0.9 0 1.4q0.3 1.2 0.7 2.4 0.5 1.7 1.3 3.3c0.4 0.7 0.8 1.4 1.3 2.1q0.8 1.4 1.9 2.6c0.4 0.4 0.9 0.7 1.4 1q0.6 0.3 1.3 0 0.4-0.2 0.8-0.5c0.5-0.5 1-1.1 1.5-1.7q0.5-0.8 1.1-1.6c0.5-0.8 1-1.6 1.4-2.5 0.5-1.1 1-2.4 1.3-3.6 0.2-0.6 0.4-1.2 0.5-1.9 0.1-0.4 0-0.8-0.1-1.2-0.3-0.6-0.7-1-1.3-1.3q-1.2-0.6-2.5-1c-0.6-0.2-1.2-0.5-1.9-0.6-0.5-0.1-1-0.3-1.6-0.3zm0.1 0.2c0.6 0 1.1 0.1 1.6 0.3q2.2 0.6 4.2 1.5c0.6 0.3 1 0.7 1.2 1.3q0.2 0.6 0.1 1.3-0.2 0.9-0.5 1.8c-0.4 1.3-0.9 2.6-1.5 3.9-0.3 0.7-0.8 1.3-1.2 2-0.5 0.7-1 1.5-1.6 2.2-0.4 0.5-0.8 0.9-1.3 1.3q-0.2 0.1-0.4 0.2-0.6 0.3-1.2 0.1c-0.4-0.3-0.8-0.6-1.2-1q-1.1-1.1-1.9-2.5c-0.4-0.6-0.8-1.3-1.2-1.9-0.5-0.8-0.8-1.7-1.1-2.6q-0.6-1.6-1-3.2c-0.1-0.5-0.2-0.9-0.1-1.3q0.2-1 1.1-1.5 0.7-0.4 1.4-0.6 1.6-0.7 3.3-1.1 0.6-0.2 1.3-0.2zm-5.6 3.8h0.1q0.4-0.1 0.7-0.3 0.1 0 0.3-0.1 0.1 0 0.1-0.2 0-0.1-0.1-0.3-0.1-0.2-0.3-0.1-0.1 0-0.3 0.1-0.5 0.1-1 0.3l0.4 1.1q0.1 0 0.2-0.1 0-0.2-0.1-0.4zm11.6-0.7q-0.1 0.4-0.3 0.8 0 0 0 0c-0.3-0.4-0.5-0.7-0.7-1-0.1-0.2-0.3-0.3-0.5-0.3l-0.3 1.1q0.1 0.1 0.2 0.1 0.2-0.4 0.3-0.9 0 0.1 0.1 0.1 0.3 0.5 0.7 1c0.1 0.2 0.2 0.2 0.4 0.3q0.2-0.6 0.4-1.1-0.2-0.1-0.3-0.1zm-10.2-0.5q0.1 0.6 0.3 1.1h0.2q0-0.2 0-0.4 0.3-0.1 0.7-0.2 0 0 0.1 0 0.1 0.2 0.3 0.3 0.1 0 0.1 0 0.1 0 0.3-0.1-0.3-0.1-0.5-0.3 0.1 0 0.2-0.1c0 0 0.1-0.1 0.1-0.2q0-0.1-0.1-0.3-0.1-0.1-0.2-0.1-0.1 0-0.2 0-0.6 0.1-1.3 0.3zm6.9-0.4c-0.4 0-0.5 0.1-0.6 0.3q0 0.2 0 0.4c-0.1 0.2 0 0.4 0.3 0.5q0.5 0.1 1.1 0.2 0.3 0 0.4-0.4l0.1-0.3q0.1-0.4-0.3-0.5c-0.4-0.1-0.8-0.1-1-0.2zm-4.7 0.4q0 0.1 0 0.3 0 0.4 0.4 0.4h0.1l0.8-0.1q0.2 0 0.3 0 0.3-0.1 0.3-0.4 0-0.2 0-0.3c-0.1-0.4-0.2-0.5-0.5-0.5q-0.5 0-1 0.1-0.4 0-0.4 0.5zm-2.2 5.7c0 2.3 1.9 4.3 4.3 4.3 2.3 0 4.3-1.9 4.3-4.3 0-2.4-1.9-4.3-4.3-4.3q-0.8 0-1.6 0.3-0.8 0.3-1.4 0.9-0.6 0.6-1 1.4-0.3 0.8-0.3 1.7zm4.4-6.1q0.3 0 0.7 0.1 0 0.4-0.1 0.9 0.1 0 0.2 0 0.1 0 0.1-0.1 0-0.4 0-0.7v-0.1h0.7v-0.2q-0.8-0.1-1.6-0.1 0 0.1 0 0.2zm-0.2 10.1c-2.2 0-4.1-1.8-4-4.1 0-2.2 1.8-4 4.1-4 2.2 0 4 1.8 4 4.1 0 2.2-1.8 4-4.1 4zm0.2-7.9c-1.2 0-2.2 0.5-3.1 1.4q0.6 0.2 1.1 0.7 0.4 0.4 0.8 0.9-1.3-0.5-2.6-0.4 0.1 0 0.1 0 0.6 0.3 1 0.6 0.6 0.3 1 0.7 0.1 0.1 0.2 0.2-1.2-0.3-2.5-0.1 0.1 0 0.1 0 0.3 0.2 0.6 0.3 0.2 0.1 0.5 0.3 0.3 0.1 0.5 0.3 0.3 0.2 0.5 0.4c0.7 0.6 1.3 1.3 1.6 2.1 0 0.2 0 0.2 0.2 0.1q1.2-0.2 1.6-1.4 0 0 0 0-0.2 0.1-0.3 0.1c-0.2 0.2-0.3 0.1-0.4 0l-0.1-0.1-0.5-0.6q0 0 0 0 0-0.1 0-0.1 0 0 0 0 0 0 0 0c-0.2-0.3 0-0.7 0.3-0.8q0.5-0.2 1-0.4c0.1 0 0.2-0.1 0.3 0q0.3 0.1 0.7 0.2-0.2 0.3-0.2 0.5 0 0.1 0 0c0.5-0.2 0.9-0.6 1.1-1.1q0 0 0 0 0-0.1 0-0.1 0 0 0 0 0 0-0.1 0-0.2-0.4-0.7-0.6-0.1-0.1-0.2-0.2l0.9 0.1q0-0.1 0-0.1-0.2-0.2-0.4-0.4c-0.7-0.6-1.4-1.2-2.2-1.5q-0.2-0.2-0.5-0.2c-0.5 0-1 0-1.6 0.2 0.4-0.4 0.7-0.8 1.2-1zm-1.6-1.4h-0.1c-0.1 0-0.2 0-0.2-0.2q0-0.2 0-0.3c0-0.2 0-0.2 0.2-0.2q0.3-0.1 0.6-0.1 0.2 0 0.3 0 0.2 0 0.2 0.2 0 0.1 0 0.3c0 0.2 0 0.2-0.2 0.3q-0.2 0-0.4 0-0.2 0-0.4 0zm4.8 0.3q-0.3-0.1-0.7-0.1-0.1-0.1-0.2-0.1-0.2 0-0.1-0.2 0-0.2 0-0.4c0.1-0.1 0.1-0.2 0.3-0.1q0.3 0 0.6 0.1h0.3c0.1 0.1 0.2 0.1 0.1 0.3v0.3c0 0.2-0.1 0.2-0.3 0.2zm-7.1-0.3q-0.1-0.2-0.1-0.3 0.2-0.1 0.5-0.1 0.2-0.1 0.4-0.1c0.2 0 0.2 0 0.2 0.1q0 0.2-0.1 0.2-0.3 0.1-0.5 0.1-0.2 0.1-0.4 0.1zm-1.9 0.6q-0.1-0.2-0.1-0.3 0 0 0.1-0.1 0.3-0.1 0.7-0.2c0.2-0.1 0.2 0 0.2 0.1q0.1 0.1-0.1 0.2-0.4 0.1-0.8 0.3zm5.6 6.2c-0.1-0.6-0.1-1.2-0.5-1.8 0.6 0 1.2 0.1 1.8 0.3h-1.2q0 0.8-0.1 1.5zm0.2-3.5c0.7-0.2 1.3-0.1 1.9 0.1h-0.9q0.2 0.2 0.4 0.3-0.7-0.2-1.4-0.4z"/></svg>