<svg version="1.2" xmlns="http://www.w3.org/2000/svg" viewBox="0 0 24 24" width="24" height="24"><style></style><path  d="m13 13.6h-2.4q0-0.3 0.1-0.6h-0.1l-0.3 0.6h-8.3l0.4-1.4h11zm8.9-1.5c-0.1 0.5-0.2 0.9-0.4 1.3 0 0.1-0.2 0.1-0.4 0.1q-2.4 0.1-4.7 0c-0.4 0-0.6 0.2-0.6 0.5-0.1 0.4-0.2 0.8-0.3 1.2h-1.5c0.2-0.6 0.3-1.1 0.4-1.6l-1.1-0.1c0.3-0.7 0.4-1.3 0.7-2 0.1-0.2 0.5-0.4 0.8-0.4 0.6-0.1 1.2 0 1.8 0-0.1 0.3-0.2 0.6-0.3 1h5.6zm-11.9 3.2q0.1-0.3 0.1-0.6h-0.1q-0.1 0.3-0.2 0.6h-2.6q0.2-0.6 0.4-1.2 0.1-0.2 0.2-0.2c1.7 0 3.4 0 5.1 0q-0.2 0.6-0.4 1.2-0.1 0.2-0.3 0.2c-0.7 0.1-1.4 0-2.1 0m-4.8-4.9h2.3c0.4 0 0.7 0.3 0.7 0.7 0.1 0.6 0 0.7-0.7 0.7-1.2 0-2.4 0.1-3.6 0-0.2 0-0.6-0.1-0.7-0.3-0.3-0.3 0-0.6 0.2-0.9q0.7-0.8 1.4-1.7 0.2-0.2 0.5-0.2c0.4 0 0.8 0 1.3 0l-1.4 1.7zm15-1.7c-0.4 0.6-0.9 1.1-1.4 1.7h1.9c1.1 0 1.3 0.3 1.1 1.4q-0.2 0-0.4 0h-3.8q-0.2 0-0.3 0c-0.5-0.1-0.7-0.4-0.5-0.9q0.1-0.1 0.3-0.3c0.2-0.3 0.6-0.6 0.8-1 0.5-0.9 1.3-1.1 2.3-0.8"/></svg>