<svg version="1.2" xmlns="http://www.w3.org/2000/svg" viewBox="0 0 24 24" width="24" height="24"><style></style><path fill-rule="evenodd" d="m16.6 11.4l-0.1 0.3h-1.9c-0.1 0-0.2 0-0.2 0.2h2.1v0.3h-2.1v0.2h2.1v0.3h-2.4v-0.8c0-0.3 0.2-0.5 0.5-0.5zm0.9 0.5q0-0.1 0-0.2 0-0.1 0.1-0.2 0.1-0.1 0.2-0.1 0.1-0.1 0.2-0.1h1.9v0.3h-1.9c-0.1 0-0.2 0.2-0.2 0.3v0.4h2.1v0.3h-2.5v-0.7zm-14.5-0.5c0.3 0 0.5 0.2 0.5 0.5 0 0.1 0 0.2 0 0.2q0 0-0.1 0.1 0.1 0.1 0.1 0.3v0.2h-0.3v-0.2c0-0.1-0.1-0.2-0.2-0.2h-1.4v-0.3h1.6v-0.1c0-0.2-0.1-0.2-0.2-0.2h-1.7v1h-0.3v-1.3zm1.3 0.4q0-0.1 0.1-0.2 0-0.1 0.1-0.1 0-0.1 0.1-0.1 0.1-0.1 0.2-0.1h2v0.3h-2c-0.1 0-0.2 0.1-0.2 0.2h2.2v0.3h-2.2v0.2h2.2v0.3h-2.5zm3.8-0.5h2v0.3h-2c-0.1 0-0.2 0.1-0.2 0.2h2.2v0.3c0 0.3-0.2 0.5-0.5 0.5h-2v-0.3h2c0.1 0 0.2-0.1 0.2-0.2h-2.2v-0.3c0-0.2 0.2-0.5 0.5-0.5zm5.3 0.6v0.4h-2.2v0.3h-0.3v-1.3h1.9c0.3 0 0.6 0.3 0.6 0.6zm-0.3 0c0-0.1-0.1-0.3-0.3-0.3h-1.6v0.4h1.9zm10.2-0.3h-1.1v1h-0.3v-1h-1.1v-0.3h2.5z"/></svg>