<svg version="1.2" xmlns="http://www.w3.org/2000/svg" viewBox="0 0 24 24" width="24" height="24"><style></style><path fill-rule="evenodd" d="m14.5 14.3h-0.9v-2c0 0 0.1-1.6-1.3-1.6h-1.3v3.6h-0.9v-4.6h2.8c0 0 1.6 0.2 1.6 2.9 0 0 0 1.7 0 1.7zm-9.8-4.6c0.1 0 1.4 1.1 0.2 2.8 0 0 0.6 0.8 0.6 1.8h-0.8c0 0-0.2-1.6-0.7-1.6h-2.1v1.6h-0.9v-4.6zm-0.5 2.1c0 0 0.6-0.6 0-1.4h-2.4v1.4c0 0 2.4 0 2.4 0zm17.8 2.5v-2h-2.1v2h-0.8v-2.4c0-1.9 1.1-2.2 1.1-2.2h2.8v4.6zm-1.5-3.9c0 0-0.6 0.2-0.7 1v0.2h2.2v-1.2zm-15.1-0.7h0.9v2c0 0-0.2 1.6 1.3 1.6h1.3v-3.6h0.9v4.6h-2.9c0 0-1.5-0.2-1.5-2.9 0 0 0-1.7 0-1.7zm13.4 4.6h-0.9v-2c0 0 0.1-1.6-1.3-1.6h-1.3v3.6h-0.9v-4.6h2.9c0 0 1.5 0.2 1.5 2.9 0 0 0 1.7 0 1.7z"/></svg>