<svg version="1.2" xmlns="http://www.w3.org/2000/svg" viewBox="0 0 24 24" width="24" height="24"><style></style><path fill-rule="evenodd" d="m22 10.9c0.1 0 0.1 0.1 0.1 0.1 0.4 0 0.9 0 0.9 0.5 0.1 0.1-0.4 0.4-0.6 0.6-0.6 0.4-1.2 0.8-1.9 0.1 0-0.1-0.3 0-0.5 0.1-0.2 0.1-0.4 0.4-0.6 0.5-0.5 0.4-1 0.3-1.3-0.2-0.3-0.4-0.5-0.3-0.8 0q-0.3 0.2-0.5 0.4c-0.6 0.3-1 0.1-1.1-0.6 0-0.2-0.2-0.4-0.3-0.7-0.2 0.2-0.5 0.2-0.6 0.4-0.3 0.2-0.5 0.5-0.8 0.8-0.2 0.1-0.4 0.2-0.6 0.2-0.1-0.2-0.1-0.4-0.1-0.6-0.1-0.2 0-0.3 0.1-0.7-0.4 0.3-0.7 0.4-0.9 0.6-0.2 0.2-0.4 0.4-0.7 0.6-0.2 0.2-0.5 0.3-0.7 0.3-0.2-0.1-0.3-0.5-0.4-0.7 0-0.2 0-0.4-0.1-0.8-0.4 0.4-0.7 0.7-1 1-0.4 0.4-0.8 0.8-1.3 0.2-0.1-0.1-0.4 0-0.5 0.1-0.3 0.1-0.4 0.5-0.6 0.5-0.3 0.1-0.8 0.1-0.9 0-0.3-0.4-0.5-0.3-0.8 0-0.9 0.6-1.8 1.1-2.8 1.3-0.8 0.1-1.2 0-1.7-0.5q0.5 0 0.8-0.1 1.7-0.2 3.1-1.2c0.2-0.2 0.5-0.6 0.5-0.9 0-0.2-0.5-0.4-0.8-0.5-0.2-0.1-0.3-0.1-0.5-0.2-0.9-0.2-1-0.6-0.4-1.2 0.7-0.8 1.6-1.2 2.7-1.2 0.3 0 0.6 0.2 0.9 0.4q0 0.1 0 0.2c-0.9-0.1-1.7 0-2.4 0.5-0.2 0.1-0.4 0.2-0.5 0.3q0 0.1 0.1 0.3 0.4 0.1 0.8 0.3c0.3 0.2 0.6 0.4 1 0.5 0.1 0.1 0.5 0.1 0.5 0q0.7-0.9 1.8-0.6c0.1 0.1 0.3 0 0.5-0.1 0 0.5 0 0.9-0.1 1.4 0.3-0.1 0.5-0.2 0.7-0.3 0.3-0.3 0.6-0.7 0.9-0.9 0.2-0.2 0.6-0.3 0.8-0.2 0.1 0.1 0.2 0.4 0.3 0.7 0 0.1 0 0.3 0 0.6 0.3-0.2 0.6-0.4 0.8-0.5 0.3-0.3 0.6-0.6 1-0.9 0.5-0.3 0.6-0.2 0.7 0.4 0.1 0 0.1 0.1 0.2 0.3q0.4-0.4 0.9-0.7 1-0.7 1.2 0.6c0 0.2 0.1 0.4 0.2 0.6 0.2-0.1 0.4-0.1 0.6-0.3 0.8-0.5 1.5-1 2.3-1.5 0.3-0.2 0.8-0.2 1.3-0.3 0.1 0 0.3 0 0.4 0 0.8-0.2 0.9 0 0.7 0.7q0 0.2 0 0.3m-13.8 0.5q-0.1 0-0.3 0 0 0.1-0.1 0.1c-0.5 0.2-1 0.8-1 1.1 0.1 0.1 0.3 0.3 0.4 0.3h0.1q0.2-0.2 0.5-0.5 0.1-0.1 0.2-0.2 0.2-0.2 0.3-0.3c0-0.1-0.1-0.3-0.1-0.5zm12.4-0.6q-0.1-0.1-0.3-0.1-0.1 0-0.1 0-0.4 0.1-0.7 0.3-0.1 0-0.2 0.1-0.1 0.1-0.2 0.2-0.1 0.2-0.2 0.3-0.1 0.1-0.1 0.2 0 0.1 0 0.1c0 0.2 0.1 0.3 0.1 0.4q0.1 0.1 0.2 0.1c0.5-0.4 1-0.8 1.4-1.3 0.1-0.1 0.1-0.2 0.1-0.3zm-8.3-0.8q-0.3 0.4-0.6 0.7c0 0-0.5-0.3-0.4-0.4 0.1-0.2 0.3-0.5 0.6-0.8 0.2 0.2 0.4 0.4 0.4 0.5z"/></svg>