<svg version="1.2" xmlns="http://www.w3.org/2000/svg" viewBox="0 0 24 24" width="24" height="24"><style></style><path fill-rule="evenodd" d="m19.6 8.2q0 1.6 0 3.3-0.1 2.6-1.7 4.8c-0.9 1.2-2 2-3.2 2.7q-1.2 0.8-2.6 1.2c0 0.1-0.2 0.1-0.2 0-1.9-0.6-3.5-1.6-4.9-2.9q-1.6-1.6-2.2-3.7-0.4-1.2-0.3-2.5v-6.2c0-0.2 0-0.3 0.2-0.3q1.5-0.3 3-0.5 1.1-0.2 2.2-0.3 2.1-0.1 4.1 0 2.3 0.2 4.5 0.6 0.4 0.1 0.9 0.2 0.2 0.1 0.2 0.3v3.3zm-0.2-3.2c0-0.1-0.1-0.2-0.2-0.2-0.8-0.2-1.6-0.3-2.4-0.5q-1.4-0.2-2.7-0.3-1.5 0-2.9 0-1.1 0-2.2 0.1-2.1 0.2-4.1 0.7c-0.2 0-0.2 0.1-0.2 0.3v6.1q0 1.4 0.4 2.8 0.2 0.5 0.4 1 0.3 0.4 0.6 0.9 0.3 0.4 0.6 0.8 0.4 0.4 0.8 0.7 0.5 0.4 1 0.8 0.5 0.4 1 0.7 0.6 0.3 1.2 0.6 0.5 0.3 1.1 0.5 0.2 0 0.4 0 0.7-0.3 1.3-0.6 1.9-0.9 3.4-2.3 0.3-0.3 0.6-0.6 0.2-0.3 0.5-0.7 0.2-0.3 0.4-0.7 0.2-0.4 0.4-0.7 0.5-1.5 0.6-3zm-0.6 0.5c0-0.2 0-0.3-0.2-0.3-0.8-0.1-1.6-0.3-2.5-0.4q-2.7-0.4-5.5-0.3-2.6 0.1-5.2 0.7c-0.2 0-0.2 0.1-0.2 0.2v5.7q0 0.6 0.1 1.2c0.1 1.1 0.5 2.1 1.1 3 0.5 0.9 1.3 1.6 2.1 2.2q1.5 1.2 3.4 1.9c0.1 0.1 0.2 0 0.2 0q1.4-0.5 2.6-1.2c1-0.7 1.9-1.4 2.7-2.4 0.8-1.3 1.4-2.6 1.4-4.2 0.1-1 0-2 0-3zm0.1 3.3c0 0.9 0 1.9 0 2.9-0.1 1.7-0.7 3.2-1.8 4.5-0.5 0.7-1.3 1.3-2 1.8q-1.4 1-3 1.5 0 0.1 0 0.1-0.1 0-0.1 0 0 0 0 0 0 0-0.1 0-1.9-0.8-3.6-2c-0.9-0.7-1.6-1.6-2.2-2.6q-1-1.7-1-3.7v-5.9c0-0.1 0.1-0.2 0.2-0.2 1.4-0.3 2.7-0.5 4.1-0.6q1.7-0.1 3.5-0.1c1.9 0 3.9 0.3 5.8 0.7 0.2 0 0.2 0.1 0.2 0.3q0 1.6 0 3.3zm-5.5 1.8q-0.6 0.4-0.8 1.2c0 0.4 0.1 0.7 0.3 1 0.6 1.1 0.7 2.2 0.1 3.3-0.3 0.6-0.7 1.2-1 1.9-0.2-0.4-0.4-0.8-0.5-1.2q-0.3-0.4-0.5-0.8-0.2-0.4-0.5-0.7-0.3-0.4-0.6-0.7-0.4-0.4-0.7-0.7c-0.5-0.4-1-0.7-1.5-1.1-0.1-0.1-0.1-0.1-0.1-0.2q0.3-2.3 1.9-4 0.3-0.2 0.5-0.5 0.3-0.2 0.6-0.4 0.3-0.2 0.6-0.3 0.3-0.2 0.6-0.3c0.8-0.4 1.7-0.5 2.5-0.6 0.2 0 0.2 0 0.2-0.1 0.2-0.5 0.6-0.7 1-0.7q0.1 0 0.2 0-0.1 0.3-0.2 0.5-0.1 0.1 0.1 0.2 0.5 0.6 1 1.2 0.2 0.2 0.1 0.5c0 0.2 0.1 0.3 0.1 0.4q0.7 1.1 1.3 2.1c0.1 0.2 0.3 0.4 0.2 0.7q0 0.2-0.2 0.3c-0.3 0.2-0.6 0.4-0.8 0.7-0.1 0-0.1 0.1-0.2 0.1-0.1 0-0.1-0.2-0.1-0.2-0.1-0.2-0.2-0.4-0.5-0.5 0 0-0.1 0.1-0.2 0.1 0.1 0.1 0.1 0.1 0.1 0.2q0.1 0.1 0.3 0.2c0 0.1 0 0.1 0.1 0.2q0 0-0.1 0.1l-0.5-0.1q-0.1-0.1-0.3-0.1c-0.1 0-0.2 0-0.2-0.2 0-0.1 0-0.2-0.1-0.2q-0.4-0.4-0.8-0.7 0 0 0 0 0 0-0.1 0 0 0 0 0 0 0-0.1 0c-0.4-0.1-0.8-0.3-1.2-0.6q0-0.1 0-0.1zm1.2-4.7q-0.1 0.2-0.3 0.4c0 0-0.1 0.1-0.2 0.1q-1.6 0.1-2.9 0.8-1.3 0.6-2.2 1.8-0.3 0.3-0.6 0.7-0.2 0.4-0.4 0.9-0.2 0.4-0.4 0.9-0.1 0.5-0.2 0.9 0 0.1 0 0.2-0.8-0.3-1.6-0.7c0.8-3.5 4.5-6.6 8.8-6zm-1.2 4.9c0.2 0.1 0.2 0.2 0.1 0.4 0 0.1 0.1 0.3 0.2 0.5q0.5 0.7 0.8 1.7 0.3 1.1-0.2 2.2c-0.6 1-1.3 1.8-2.2 2.5 0.2-0.3 0.4-0.7 0.6-1 0.3-0.6 0.7-1.2 0.8-1.9 0.2-0.9 0-1.7-0.4-2.4-0.5-0.7-0.3-1.6 0.3-2z"/></svg>