<svg version="1.2" xmlns="http://www.w3.org/2000/svg" viewBox="0 0 24 24" width="24" height="24"><style></style><path fill-rule="evenodd" d="m4.1 9.7l-0.9 1.1h-1.2c-0.1 0-0.2 0.1-0.2 0.2v0.3c0 0.1 0.1 0.2 0.2 0.2h1.2c0.5 0 0.9 0.5 0.9 1.1v0.6c0 0.6-0.4 1.1-0.9 1.1h-2.2v-1.1h1.6q0.3 0 0.5 0.2l0.1 0.1v-0.2c0-0.5-0.3-0.9-0.8-0.9h-0.5c-0.5 0-0.9-0.5-0.9-1.1v-0.5c0-0.6 0.4-1.1 0.9-1.1 0 0 2.2 0 2.2 0zm14.4 0.8v3.8h-0.8v-2.8zm-0.8-0.8h0.8v0.3l-0.8 1zm-9.5 0.1v4.5h-0.9v-1.7h-2v1.7h-0.8v-3.5l0.8-1v1.8h2v-1.8zm3.1 0l1.9 4.5h-0.8l-0.4-0.9h-2.3l-0.4 0.9h-0.8l1.9-4.5zm-1.1 2.6h1.4l-0.7-1.7zm12.9 1.9h-0.8l-2.4-3v3h-0.8v-3.5l0.8-1 2.4 3.1v-2.1l0.8-1zm-5.8-4.5v4.5h-0.8v-1.7h-2.1v1.7h-0.8v-4.5h0.8v1.8h2.1v-1.8z"/></svg>