<svg version="1.2" xmlns="http://www.w3.org/2000/svg" viewBox="0 0 24 24" width="24" height="24"><style></style><path fill-rule="evenodd" d="m6.2 7.5c0 0 0-0.1 0.1-0.1 0.6-0.3 1.2-0.6 1.8-0.8q0.1 0 0.3 0h0.1c0.1 0 0.2 0 0.1 0.2q0.1 0 0.1 0 0.7-0.3 1.3-0.5 0.3 0 0.5-0.1c0 0 0.1 0 0.1 0.1q0 0-0.1 0.1 0 0.1-0.1 0.1-1 0.6-1.8 1.3c-0.5 0.5-1 1.1-1.4 1.9q-0.1 0.3-0.2 0.7c-0.1 0.4-0.1 0.8 0 1.2 0.2 1.2 1 1.9 2.2 2.4 0.6 0.2 1.2 0.3 1.9 0.5q0.2 0 0.3 0.1c0.2 0.1 0.2 0.3 0.1 0.5q-0.3 0.2-0.5 0.3-0.1 0.1-0.2 0.2c-0.1 0.3-0.1 0.5 0 0.8q0.2 0.2 0.4 0.3 0.8 0.4 1.6 0 0.1-0.1 0.2-0.2c0.3-0.3 0.3-0.8 0-1l-0.5-0.4c-0.2-0.2-0.1-0.4 0.1-0.6 0.1 0 0.3-0.1 0.4-0.1 0.6-0.1 1.2-0.2 1.8-0.4 0.9-0.4 1.6-0.9 1.9-1.8q0.4-0.7 0.3-1.4c0-0.4-0.1-0.7-0.2-1-0.3-0.6-0.7-1.2-1.2-1.7-0.6-0.7-1.3-1.2-2-1.6q-0.1-0.1-0.2-0.1 0-0.1 0-0.2 0 0 0.1 0 0.2 0 0.4 0.1 0.7 0.1 1.3 0.4 0.1 0 0.1 0.1 0-0.1 0-0.1c0-0.1 0-0.2 0.2-0.2q0.2 0 0.4 0.1c0.6 0.2 1.2 0.4 1.8 0.7q0 0.1 0.1 0.1 0 0 0 0c0-0.2 0-0.2 0.1-0.2q0.2 0 0.3 0.1c1 0.4 1.8 0.9 2.5 1.7q0.4 0.5 0.7 1.2c0.1 0.6 0.1 1.1-0.2 1.6q-0.5 0.9-1.3 1.5-0.7 0.4-1.4 0.7c-0.9 0.3-1.7 0.5-2.6 0.7q-1 0.2-2.1 0.4c-0.1 0.1-0.2 0.1-0.2 0.2 0 0.1 0.1 0.1 0.1 0.2q0.2 0.1 0.4 0.3 0.1 0.1 0.2 0.1 0.2 0.4-0.1 0.6-0.2 0.2-0.4 0.3c-0.4 0.2-0.7 0.4-1 0.7-0.2 0.1-0.4 0.2-0.6 0.3-0.5 0-0.8-0.1-1.1-0.4q-0.4-0.4-0.9-0.6-0.2 0-0.4-0.2c-0.3-0.2-0.3-0.5-0.1-0.8q0.2-0.1 0.5-0.3 0-0.1 0-0.1c0.1-0.1 0.1-0.2 0-0.2q-0.1 0-0.2-0.1-1.6-0.3-3.1-0.6-1-0.3-1.9-0.7-1-0.3-1.7-1-0.4-0.5-0.7-1.1-0.1-0.2-0.1-0.5c-0.1-0.4 0-0.9 0.1-1.2q0.4-0.8 1-1.4 0.9-0.8 2-1.2 0.2-0.1 0.3-0.1c0.2-0.1 0.2 0 0.2 0.1q0 0 0 0.1m0 6.3q-0.1-0.1-0.2-0.1-0.7-0.3-1.4-0.8-0.7-0.6-1-1.4-0.2-0.6 0-1.1c0.1-0.5 0.4-1 0.7-1.4 0.4-0.5 1-0.9 1.5-1.3q0.1 0 0.1-0.1 0 0 0 0 0 0 0 0-0.9 0.5-1.6 1.2-0.5 0.4-0.8 0.9-0.5 1-0.1 2c0.2 0.5 0.6 0.9 1 1.2q0.8 0.6 1.7 0.8 0 0.1 0.1 0.1zm9.5-6.9q0.1 0 0.2 0.1 0.4 0.3 0.9 0.5c0.6 0.4 1.2 0.9 1.6 1.4q0.5 0.6 0.7 1.3c0.1 0.3 0.2 0.7 0.1 1q-0.1 0.4-0.3 0.7c-0.3 0.5-0.7 1-1.2 1.3q-0.7 0.5-1.4 0.8-0.1 0-0.2 0.1 0.1 0 0.2-0.1c0.7-0.2 1.4-0.5 2-0.9q0.5-0.4 0.9-1 0.4-0.5 0.4-1.2 0-0.7-0.4-1.4c-0.2-0.5-0.6-0.9-1.1-1.3-0.7-0.5-1.4-1-2.3-1.3zm-7.7 7.2q0 0 0.1 0-0.1 0-0.2-0.1c-0.6-0.2-1.2-0.6-1.7-1q-0.7-0.5-1-1.2c-0.2-0.4-0.3-0.8-0.2-1.2q0.1-0.6 0.4-1.1 0.4-0.6 0.9-1.1c0.6-0.6 1.3-1 2-1.4q0.1 0 0.2-0.1-0.1 0-0.2 0-0.5 0.3-1.1 0.6-0.9 0.4-1.6 1.2c-0.4 0.4-0.7 0.8-0.9 1.4-0.2 0.9-0.1 1.7 0.6 2.4q0.2 0.2 0.5 0.5c0.5 0.4 1.1 0.6 1.7 0.9q0.3 0.1 0.5 0.2zm10.2-6.5q0 0 0 0.1 0.1 0 0.1 0 0.7 0.5 1.3 1.1 0.6 0.6 0.9 1.3 0.3 0.8-0.1 1.7-0.4 0.8-1.1 1.3-0.6 0.4-1.2 0.6 0 0 0 0-0.1 0-0.1 0.1 0 0 0.1 0 0.8-0.3 1.5-0.8c0.4-0.3 0.8-0.6 1-1.1q0.6-1 0.1-2.1-0.3-0.4-0.6-0.8c-0.5-0.6-1.2-1-1.8-1.4q0 0-0.1 0z"/></svg>