<svg version="1.2" xmlns="http://www.w3.org/2000/svg" viewBox="0 0 24 24" width="24" height="24"><style></style><path fill-rule="evenodd" d="m8.1 10.7c0 0.1-0.2 0.1-0.3 0.1q-0.5 0-1 0c-0.2 0-0.3 0.1-0.4 0.2-0.6 0.9-1.1 1.8-1.7 2.7-0.1 0.2-0.3 0.3-0.5 0.3-0.5 0-1 0-1.5 0 0.7-1.1 1.3-2.1 2-3.2h-3.7c0.2-0.3 0.3-0.5 0.5-0.7 0-0.1 0.1-0.1 0.2-0.1h6.9q-0.2 0.4-0.5 0.8m0.3 3c-0.1 0.1-0.3 0.2-0.5 0.2h-1.5q0.5-0.9 1-1.7 0.7-1 1.3-2.1c0.1-0.2 0.2-0.2 0.4-0.2 0.5 0 1 0 1.6 0-0.1 0.1-0.1 0.2-0.2 0.3q-1.1 1.7-2.1 3.5zm8.1-3c-0.2 0.4-0.5 0.8-1.1 1 0.3 0.3 0.1 0.6 0 0.9q-0.2 0.2-0.4 0.5c-0.3 0.5-0.8 0.8-1.4 0.8h-4.4q-0.1 0-0.3 0 0.1-0.2 0.1-0.3 1.1-1.7 2.2-3.5c0.1-0.2 0.2-0.2 0.4-0.2q2.3 0 4.5 0c0.2 0 0.5 0.1 0.5 0.2 0.1 0.1 0 0.4-0.1 0.6zm-1.9 0h-1.7c-0.1 0-0.3 0-0.4 0.2q-0.5 0.9-1 1.7c-0.1 0.2-0.2 0.3-0.3 0.5h1.5c0.5 0 0.8-0.2 0.9-0.7h-1.6c0.1-0.3 0.3-0.4 0.4-0.6 0-0.2 0.2-0.2 0.3-0.2q0.6 0 1.2 0c0.1 0 0.2-0.1 0.2-0.1q0.2-0.2 0.3-0.4 0.1-0.2 0.2-0.4zm8.1-0.8q0.4 0.1 0.3 0.5-0.1 0.2-0.2 0.3-0.9 1.5-1.8 3c-0.1 0.2-0.2 0.2-0.4 0.2h-1.6c0.3-0.5 0.6-1 0.9-1.5h-1.9q0.3-0.4 0.5-0.7c0-0.1 0.2-0.1 0.3-0.1q0.7 0 1.4 0c0.2 0 0.3-0.1 0.4-0.2 0.1-0.2 0.2-0.4 0.4-0.7q-0.2 0-0.3 0-0.8 0-1.7 0c-0.3 0-0.4 0.1-0.6 0.4-0.5 0.8-1.1 1.7-1.6 2.6-0.1 0.2-0.2 0.2-0.4 0.2h-1.6q0.1-0.2 0.2-0.3 1.1-1.7 2.2-3.5c0.1-0.2 0.2-0.2 0.4-0.2h4.8q0.2 0 0.3 0z"/></svg>