<svg version="1.2" xmlns="http://www.w3.org/2000/svg" viewBox="0 0 24 24" width="24" height="24"><style></style><path fill-rule="evenodd" d="m21.5 11.8q0 0.3 0 0.5-0.1 1.4-1 2.5c-0.6 0.7-1.2 1.2-1.9 1.7q-0.9 0.4-1.7 0.8-0.8 0.3-1.6 0.4-0.4 0.2-0.8 0.2-0.2 0.1-0.3 0.1-0.1 0-0.2 0-0.1 0-0.2 0-0.1 0-0.2 0-0.2 0.1-0.4 0.1-0.4 0-0.7 0-0.3 0-0.5 0-0.5 0-0.9 0c-0.4-0.1-0.8-0.1-1.2-0.1q-0.4-0.1-0.8-0.2-0.8-0.1-1.5-0.4-0.6-0.2-1.1-0.4-0.8-0.4-1.4-0.9-0.5-0.2-0.8-0.6-0.8-0.7-1.3-1.7-0.3-0.6-0.4-1.2-0.1-0.5 0-0.9 0.1-1.1 0.7-2 0.4-0.7 1-1.2 0.5-0.5 1.1-0.9 0.9-0.5 1.9-0.9 0.8-0.3 1.7-0.5 0.6-0.1 1.1-0.2 0.7-0.1 1.5-0.1 0.8-0.1 1.7 0 1.7 0.1 3.3 0.7 1.3 0.5 2.4 1.3 0.5 0.2 0.8 0.6 0.4 0.3 0.7 0.7c0.4 0.5 0.7 1 0.9 1.6q0.1 0.5 0.1 1m-10.9 0.3q0 0.3 0.1 0.6 0 0.5 0.1 1 0.2 0.7 0.5 1.3c0.1 0.2 0.2 0.3 0.4 0.4q0.3 0.2 0.7 0 0.2-0.1 0.3-0.3 0.4-0.6 0.5-1.3 0.1-0.7 0.2-1.3 0-0.2 0-0.4c0 0-2.8 0-2.8 0zm3.5-1.7q0 0 0 0 0 0 0 0zm0.4-0.1q0.2 0 0.3-0.1 0.2 0 0.3 0 0.2-0.1 0.4-0.1 0.1-0.1 0.3-0.1c0.3-0.2 0.6-0.3 0.9-0.6q0.4-0.4 0.3-1-0.1-0.1-0.1-0.1 0-0.1 0-0.2-0.1 0-0.1-0.1-0.1-0.1-0.1-0.1-0.3-0.3-0.6-0.4-0.8-0.4-1.6-0.6-1.1-0.3-2.2-0.3-0.4 0-0.9 0-0.3 0-0.7 0-0.5 0.1-1 0.1-0.6 0.1-1.3 0.3c-0.3 0.2-0.7 0.3-1 0.5-0.2 0.1-0.4 0.2-0.6 0.4-0.1 0.2-0.3 0.4-0.3 0.6 0 0.3 0.1 0.5 0.3 0.7q0.3 0.4 0.9 0.6 0.7 0.3 1.5 0.5l0.6 0.1q0.1 0 0.1 0 0-0.1 0-0.2 0.2-0.5 0.3-1.1 0.1-0.5 0.3-1c0.2-0.4 0.5-0.9 0.9-1.2q0.1-0.1 0.1-0.1 0.3-0.1 0.6 0c0.3 0 0.6 0.2 0.8 0.5q0.3 0.4 0.5 0.8 0.3 0.7 0.5 1.4 0.1 0.5 0.2 0.9 0.2-0.1 0.4-0.1zm4.6-1.2c0 0 0 0.1 0 0.1q-0.2 0.6-0.7 1.1-0.5 0.4-1.1 0.7-0.8 0.4-1.7 0.6-0.6 0.1-1.2 0.2c-0.1 0.1-0.1 0.1-0.1 0.2v1.2 0.1q-0.1 0.3-0.1 0.4 0 0.5-0.1 0.9-0.1 0.6-0.3 1.1c-0.2 0.3-0.3 0.6-0.4 0.8-0.2 0.3-0.3 0.5-0.5 0.7v0.1q0 0 0.1 0 0.2 0 0.5 0 0.6-0.1 1.2-0.3 0.5-0.1 1-0.2 0.6-0.2 1.3-0.6 0.2-0.1 0.4-0.3 0.2-0.1 0.5-0.2 0.2-0.2 0.4-0.4 0.2-0.1 0.3-0.3l0.1-0.1q0.2-0.2 0.4-0.4c0.3-0.3 0.5-0.6 0.7-1q0.4-0.7 0.4-1.5 0-0.2 0-0.4-0.1-0.4-0.2-0.8-0.1-0.2-0.1-0.4-0.1-0.2-0.2-0.4-0.1-0.2-0.2-0.3-0.1-0.2-0.2-0.4-0.1-0.1-0.2-0.2zm-9.4 2.8q-0.3-0.1-0.6-0.1-0.5-0.1-0.9-0.2-1-0.2-1.9-0.7-0.5-0.4-0.9-0.8-0.4-0.5-0.5-1 0 0 0-0.1-0.4 0.5-0.6 1-0.3 0.7-0.4 1.4 0 0.5 0.1 1 0 0.3 0.1 0.6 0.3 0.6 0.6 1.1 0.8 1.1 1.9 1.8 0.8 0.5 1.7 0.8 0.6 0.3 1.2 0.4 0.4 0.1 0.8 0.2 0.4 0 0.7 0.1h0.3q-0.1-0.1-0.2-0.3-0.3-0.4-0.5-0.8-0.2-0.5-0.4-1-0.1-0.5-0.2-0.9-0.1-0.3-0.1-0.6-0.1-0.1-0.1-0.2 0 0 0-0.1 0-0.1 0-0.2 0-0.1 0-0.2 0-0.4-0.1-0.9 0-0.1 0-0.3zm3.6-1.4q-0.1-0.4-0.2-0.7c-0.1-0.4-0.2-0.8-0.4-1.1q-0.2-0.3-0.4-0.4-0.1-0.1-0.2-0.1-0.1 0-0.2 0-0.2 0-0.3 0.1-0.1 0-0.2 0.1-0.3 0.4-0.4 0.8-0.2 0.6-0.3 1.2 0 0.1 0 0.1z"/></svg>