<svg version="1.2" xmlns="http://www.w3.org/2000/svg" viewBox="0 0 24 24" width="24" height="24"><style></style><path fill-rule="evenodd" d="m20.5 11.6q0.1 1.3-0.2 2.5c-0.9 3.6-4.1 6.2-7.8 6.4q-1.2 0.1-2.4-0.2-1-0.2-1.9-0.7-0.9-0.5-1.7-1.1-0.8-0.7-1.4-1.5-0.6-0.9-1-1.8-0.5-1.3-0.6-2.6 0-0.3 0-0.5v-0.3q0-0.9 0.2-1.7 0.3-1 0.7-1.9 0.5-1 1.2-1.7 0.7-0.8 1.5-1.4 0.8-0.6 1.8-1 1.3-0.5 2.6-0.6 0.2 0 0.4 0h0.3q1 0 2 0.3c3.6 0.9 6.1 4.1 6.3 7.8m-1.7-2.4q-0.5-1.4-1.6-2.4-1-1-2.4-1.6-1.3-0.5-2.8-0.5c-4-0.1-7.3 3.2-7.3 7.3 0 4 3.3 7.3 7.3 7.4q1.5-0.1 2.8-0.6 1.4-0.6 2.4-1.6 1-1 1.6-2.4 0.6-1.3 0.6-2.8 0-1.5-0.6-2.8zm-6.7 0.8q0 0 0 0 0 0 0 0zm0 0q-0.8-1.9-1.7-3.8 0.5-0.1 0.9-0.2 0.4 0 0.8 0 0.4 0 0.8 0 0.4 0.1 0.8 0.2-0.8 1.9-1.6 3.8zm1.9 4.6q0 0.1 0 0.1-0.2-0.4-0.3-0.8-0.4-0.9-0.7-1.7 0 0-0.1 0h-1.6q-0.1 0-0.1 0-0.5 1.3-1 2.5 0 0.1 0 0.1-0.1 0-0.1-0.1l-2.9-6.2q0-0.1 0-0.1 0.7-0.9 1.6-1.5 0 0 0 0 0.1 0.2 0.2 0.3 1.1 2.3 2.2 4.5 0.1 0.1 0.1 0.1 0.8 0 1.6 0 0.1 0 0.1-0.1 1.1-2.4 2.2-4.7 0-0.1 0-0.1l0.4 0.3q0.7 0.5 1.2 1.1c0 0 0 0.1 0 0.1q-1.4 3.1-2.8 6.2zm0.3 3q1.7-3.8 3.4-7.6c1.1 3-0.4 6.4-3.4 7.6zm-0.5 0.2q-1.7 0.5-3.3 0 0.8-2 1.6-4.1zm-4-0.2c-1.3-0.5-2.4-1.5-3.1-2.8-0.8-1.4-0.9-2.9-0.5-4.5q1.8 3.7 3.7 7.3z"/></svg>